<?xml version="1.0" encoding="UTF-8"?>
<svg version="1.1" xmlns="http://www.w3.org/2000/svg" width="15418" height="15417">
<path d="M0 0 C77.93813573 -1.65677709 156.90601675 13.36599198 280.16308594 68.32080078 C280.77839172 68.64319733 281.39369751 68.96559387 282.02764893 69.29776001 C293.62251659 75.39643018 304.59432097 82.35858291 314.47558594 91.00830078 C315.05783936 91.51498291 315.64009277 92.02166504 316.23999023 92.54370117 C340.76586937 114.22334201 355.19406631 144.84685139 359.22558594 177.07080078 C360.14361085 194.30561049 359.94210914 211.37500623 355.22558594 228.07080078 C355.04366699 228.73917969 354.86174805 229.40755859 354.67431641 230.09619141 C345.18911792 264.10389145 321.35540529 292.3848004 291.22558594 310.07080078 C258.82710728 327.88996404 221.36463847 331.73960396 185.92089844 321.53955078 C166.44503496 315.6110691 149.10188898 305.97661713 134.22558594 292.07080078 C133.65211426 291.54502441 133.07864258 291.01924805 132.48779297 290.47753906 C121.2069304 280.05851593 112.75141966 268.51213105 105.28808594 255.13330078 C91.18184271 229.87996514 70.73699094 206.90681079 47.22558594 190.07080078 C46.56929199 189.59723145 45.91299805 189.12366211 45.23681641 188.63574219 C-0.49281402 155.99628564 -58.19824686 140.99317569 -114.01904297 149.58959961 C-116.61424515 150.04194909 -119.19348096 150.54313917 -121.77441406 151.07080078 C-122.77472656 151.27479492 -123.77503906 151.47878906 -124.80566406 151.68896484 C-158.77571788 158.83891183 -190.89909738 172.84872033 -217.77441406 195.07080078 C-218.34111816 195.53599121 -218.90782227 196.00118164 -219.49169922 196.48046875 C-258.17530448 228.40217555 -283.87885268 271.18143083 -294.71191406 320.13330078 C-294.89906982 320.9745752 -295.08622559 321.81584961 -295.27905273 322.68261719 C-298.29820966 337.40188856 -299.07262011 352.18769227 -299.03511047 367.16433716 C-299.03813993 368.91071321 -299.04203335 370.65708794 -299.04670304 372.40346038 C-299.05688812 377.14743314 -299.05482584 381.89132952 -299.05052245 386.63530827 C-299.04803804 391.77221532 -299.05709007 396.9091048 -299.06455994 402.04600525 C-299.07725787 412.08470597 -299.07910709 422.12337988 -299.07675967 432.16208728 C-299.07497223 440.31996382 -299.07673523 448.47783227 -299.08098412 456.63570786 C-299.0818769 458.38122558 -299.0818769 458.38122558 -299.08278772 460.16200628 C-299.08399952 462.52630982 -299.08521365 464.89061336 -299.0864301 467.25491689 C-299.09728495 489.38260212 -299.09515183 511.51027207 -299.08904525 533.63795815 C-299.08386777 553.88135605 -299.09515707 574.12470594 -299.11414347 594.36809434 C-299.13350802 615.17449569 -299.14178094 635.98087431 -299.13802022 656.78728473 C-299.13610738 668.46075643 -299.13860467 680.13418718 -299.15273476 691.80765152 C-299.16463123 701.73562593 -299.16607226 711.66353413 -299.15394459 721.59150942 C-299.14804614 726.65583504 -299.14698354 731.72003944 -299.15894699 736.78435707 C-299.16977101 741.42006151 -299.16674407 746.05554298 -299.15268531 750.69123684 C-299.15002898 752.36781513 -299.15243418 754.04441071 -299.16042117 755.72097208 C-299.20178955 765.0523097 -299.12119063 772.61679452 -294.08691406 780.82080078 C-287.78991588 786.94760983 -280.29549658 788.19593498 -271.74247265 788.19549942 C-270.54968895 788.19789037 -269.35690525 788.20028132 -268.1279766 788.20274472 C-266.82634536 788.20031223 -265.52471413 788.19787974 -264.18363953 788.19537354 C-262.77989487 788.19636032 -261.37615047 788.19779789 -259.97240669 788.19964671 C-256.92345753 788.2027019 -253.87453021 788.20260101 -250.8255806 788.20009041 C-245.86383235 788.19602514 -240.90210115 788.19880281 -235.94035339 788.20243835 C-229.66842324 788.20652742 -223.3964969 788.20876795 -217.1245654 788.20885435 C-204.78914711 788.20905732 -192.45376804 788.22153151 -180.11836243 788.23846436 C-178.17479681 788.24107014 -176.23123118 788.24366895 -174.28766555 788.24626088 C-171.34204482 788.25019937 -168.3964241 788.25414591 -165.45080343 788.2581221 C-154.34635422 788.27306659 -143.24190381 788.28669087 -132.13745117 788.29882812 C-131.12251321 788.29994169 -130.10757524 788.30105525 -129.06188158 788.30220255 C-112.63583178 788.31975603 -96.20980663 788.32264808 -79.78374901 788.32097772 C-62.90217956 788.3196963 -46.02070147 788.3374955 -29.13916713 788.37199569 C-18.73745291 788.39259168 -8.33595799 788.39802397 2.06576773 788.38366738 C9.20498373 788.37517365 16.34403007 788.38503004 23.4832103 788.40897688 C27.59476105 788.4222138 31.70590427 788.42759406 35.81745148 788.41085625 C60.80330241 788.31725855 81.84283785 789.6664839 100.98339844 807.82861328 C116.69174678 823.53696162 122.52619626 840.56080063 122.5402832 862.41748047 C122.29784539 882.30025044 114.12032829 897.29794213 100.22558594 911.07080078 C99.59136719 911.73853516 98.95714844 912.40626953 98.30371094 913.09423828 C94.25932939 917.04914236 89.64656787 919.67174744 84.66308594 922.25830078 C84.05698486 922.57959961 83.45088379 922.90089844 82.82641602 923.23193359 C66.91507922 931.06907236 50.69854229 930.65259972 33.36764038 930.59028816 C29.58642308 930.58114593 25.80528003 930.59529581 22.02407837 930.60655212 C15.4861784 930.62297808 8.94840082 930.62521938 2.41048622 930.61778641 C-7.05503531 930.60722235 -16.52040847 930.62072003 -25.98591027 930.64025097 C-41.36406114 930.67152113 -56.74218047 930.68658964 -72.12036133 930.68994141 C-73.49803775 930.69024739 -73.49803775 930.69024739 -74.90354601 930.69055955 C-76.28293202 930.6908646 -76.28293202 930.6908646 -77.69018441 930.69117582 C-90.73332108 930.69409713 -103.77644801 930.70090548 -116.81958008 930.71240234 C-118.19692498 930.71361029 -118.19692498 930.71361029 -119.60209503 930.71484263 C-134.93012714 930.72861304 -150.25814192 930.75041094 -165.5861581 930.77627218 C-175.02492053 930.7916802 -184.46362617 930.79893564 -193.90240095 930.79547726 C-200.36957933 930.79343198 -206.83672949 930.79812066 -213.30390056 930.80802061 C-217.02998128 930.81343408 -220.75598879 930.81555976 -224.48206902 930.80884743 C-228.52994935 930.80159192 -232.57765834 930.80977507 -236.62553406 930.81924438 C-238.3728826 930.81224956 -238.3728826 930.81224956 -240.15553111 930.80511343 C-250.66820543 930.85297384 -260.64896281 931.73539559 -270.02441406 936.75830078 C-271.04825195 937.29438965 -271.04825195 937.29438965 -272.09277344 937.84130859 C-284.95614332 944.77768078 -292.78102942 955.27619427 -297.08300781 969.28173828 C-298.31395245 974.24724378 -298.89949238 978.97063197 -298.90206456 984.08520389 C-298.90508053 985.27664478 -298.9080965 986.46808568 -298.91120386 987.69563085 C-298.90943439 988.9983085 -298.90766492 990.30098615 -298.90584183 991.64313889 C-298.90749222 993.0516633 -298.90957884 994.46018726 -298.91206193 995.86871046 C-298.91762867 999.75168653 -298.91695615 1003.63464054 -298.91528434 1007.51761932 C-298.91455358 1011.73752402 -298.91957541 1015.95742249 -298.92385936 1020.17732453 C-298.93144272 1028.55275429 -298.93363259 1036.92817767 -298.93418841 1045.3036105 C-298.93510174 1055.33369793 -298.94176841 1065.36377945 -298.94853524 1075.39386434 C-298.9646019 1099.6393581 -298.97049952 1123.88485124 -298.97528399 1148.13034937 C-298.97761952 1159.60045557 -298.98122216 1171.07056127 -298.98497936 1182.54066708 C-298.9978162 1221.80407689 -299.00853469 1261.06748642 -299.01198196 1300.33089828 C-299.0122036 1302.79609065 -299.01242538 1305.26128301 -299.01264732 1307.72647537 C-299.01286796 1310.19763216 -299.01308844 1312.66878895 -299.01330876 1315.13994575 C-299.01375132 1320.09752893 -299.01419843 1325.05511212 -299.01464844 1330.01269531 C-299.01475783 1331.24188955 -299.01486722 1332.47108379 -299.01497993 1333.73752635 C-299.01860978 1373.58561319 -299.03452646 1413.43368183 -299.0578388 1453.2817617 C-299.08244053 1495.4108561 -299.09615499 1537.53994009 -299.09734988 1579.66904187 C-299.09752134 1584.29485655 -299.09773676 1588.92067123 -299.09798431 1593.5464859 C-299.09806797 1595.2549957 -299.09806797 1595.2549957 -299.09815331 1596.99802084 C-299.09930354 1615.32115554 -299.11032332 1633.64427156 -299.12487137 1651.96739995 C-299.13924522 1670.38991756 -299.14246835 1688.81241125 -299.13443139 1707.23493293 C-299.12997913 1718.1757207 -299.13381959 1729.11643118 -299.1496699 1740.05720878 C-299.15943672 1747.37279142 -299.15822539 1754.68832005 -299.14823367 1762.00390222 C-299.14285389 1766.16740355 -299.14209179 1770.33075671 -299.15474239 1774.49424562 C-299.26914407 1814.72259625 -291.9078796 1848.28955811 -264.77441406 1879.07080078 C-264.18789063 1879.74111328 -263.60136719 1880.41142578 -262.99707031 1881.10205078 C-239.6349501 1906.04891 -206.29005096 1917.41862037 -172.88818359 1918.66699219 C-159.40853331 1919.24435253 -147.24567471 1923.05312125 -137.77441406 1933.07080078 C-129.54948908 1943.35195701 -125.77715683 1954.95871493 -126.77441406 1968.07080078 C-128.75864332 1980.81695146 -134.64363788 1991.01537329 -144.77441406 1999.07080078 C-153.25511475 2004.14855364 -159.81321412 2006.222186 -169.62240696 2006.20502186 C-170.53038344 2006.20737409 -171.43835993 2006.20972632 -172.37385085 2006.21214983 C-175.43858192 2006.21884543 -178.50327065 2006.21838144 -181.56800842 2006.2179718 C-183.77863948 2006.22127008 -185.98926993 2006.22499557 -188.19989961 2006.22911328 C-194.2922715 2006.23914554 -200.38463354 2006.24285205 -206.47701252 2006.24550259 C-212.36736294 2006.24900185 -218.25770581 2006.2571488 -224.1480517 2006.26504653 C-239.93243375 2006.2858937 -255.71681768 2006.29636128 -271.50121029 2006.30517613 C-278.96823219 2006.30938238 -286.43525328 2006.31460441 -293.9022745 2006.31986066 C-319.46195537 2006.33775137 -345.02163647 2006.35274733 -370.58132267 2006.36018085 C-372.18606972 2006.36065561 -373.79081676 2006.3611315 -375.39556381 2006.36160852 C-376.1913755 2006.36184489 -376.9871872 2006.36208127 -377.8071144 2006.36232481 C-381.83910166 2006.36352601 -385.87108892 2006.36474146 -389.90307617 2006.3659668 C-390.7032368 2006.36620695 -391.50339743 2006.3664471 -392.32780536 2006.36669452 C-418.26967915 2006.37458708 -444.21150721 2006.39801773 -470.15336103 2006.43052274 C-497.57938402 2006.46482467 -525.00538025 2006.48453235 -552.43142503 2006.4878251 C-555.44254364 2006.48824264 -558.45366222 2006.4887222 -561.46478081 2006.48924828 C-562.57691704 2006.48943306 -562.57691704 2006.48943306 -563.71152067 2006.48962158 C-575.64077115 2006.49195319 -587.56996852 2006.50761096 -599.49920007 2006.52809012 C-611.49185985 2006.54835141 -623.48445586 2006.553824 -635.47712959 2006.54431949 C-641.97361524 2006.53976786 -648.46992848 2006.54171147 -654.96639061 2006.56108093 C-660.91478127 2006.57866324 -666.86287309 2006.57775467 -672.81126671 2006.56218364 C-674.96207249 2006.5598001 -677.1128987 2006.56416964 -679.26367319 2006.57601229 C-695.124341 2006.6579283 -707.7940008 2005.31125573 -719.93457031 1994.07080078 C-729.8633787 1983.67802939 -732.27766341 1972.5348619 -732.05175781 1958.63330078 C-731.5721139 1947.00730502 -725.1953919 1936.61066907 -716.88378906 1928.70361328 C-706.95582833 1921.01863627 -696.15446314 1918.92274661 -683.96191406 1918.69580078 C-648.07585254 1917.45636764 -616.63393892 1902.3573654 -591.96582031 1876.60986328 C-587.25333042 1871.50872878 -583.42937174 1865.97823237 -579.77441406 1860.07080078 C-579.08863281 1858.99572266 -578.40285156 1857.92064453 -577.69628906 1856.81298828 C-573.81378191 1850.42611582 -570.69503827 1843.92772055 -568.02441406 1836.94580078 C-567.62005127 1835.9197876 -567.62005127 1835.9197876 -567.20751953 1834.87304688 C-560.19828761 1815.54691449 -560.1907139 1795.81836511 -560.26054385 1775.56059451 C-560.27079014 1771.28644731 -560.25761212 1767.01235675 -560.24757051 1762.73821783 C-560.23319055 1755.26447392 -560.23352061 1747.7908458 -560.24375916 1740.31709671 C-560.2589425 1729.20346954 -560.25112669 1718.08993932 -560.23892593 1706.97631272 C-560.21790265 1687.1251266 -560.21967228 1667.27399209 -560.23124158 1647.4228011 C-560.24131341 1630.05543671 -560.24392609 1612.6880912 -560.239151 1595.32072449 C-560.23884546 1594.16762756 -560.23853992 1593.01453064 -560.23822512 1591.82649138 C-560.23697973 1587.14549852 -560.23570613 1582.46450566 -560.23438607 1577.78351281 C-560.22215904 1533.90298709 -560.23323086 1490.0224942 -560.25477365 1446.14197355 C-560.27376521 1407.16152599 -560.27204806 1368.1811307 -560.25292969 1329.20068359 C-560.23151258 1285.38709445 -560.22301616 1241.57353428 -560.23537874 1197.75994062 C-560.23666159 1193.09007741 -560.23791295 1188.42021418 -560.239151 1183.75035095 C-560.23962547 1182.02563833 -560.23962547 1182.02563833 -560.24010951 1180.26608302 C-560.24465899 1162.90459936 -560.2393393 1145.54313665 -560.22923279 1128.18165588 C-560.2178018 1108.44673075 -560.2206427 1088.71186519 -560.24235576 1068.97694749 C-560.25410632 1057.93260933 -560.25485974 1046.88840018 -560.23977107 1035.84406536 C-560.23080458 1028.46760202 -560.2363782 1021.09124217 -560.25379014 1013.71479417 C-560.26330721 1009.51182375 -560.26655492 1005.30910973 -560.25216621 1001.10614735 C-560.23919621 997.27856348 -560.24480354 993.45146226 -560.26488885 989.62391321 C-560.27078324 987.60748014 -560.25718822 985.59101838 -560.24267173 983.57462895 C-560.36447031 968.76876745 -565.43736956 956.56397745 -575.58691406 945.75830078 C-587.66951205 934.41782014 -602.48463984 930.91945545 -618.63427734 930.92895508 C-619.59952835 930.92548065 -620.56477936 930.92200623 -621.5592804 930.91842651 C-623.64683589 930.91109994 -625.73439902 930.90573813 -627.82196426 930.90213585 C-631.13624514 930.89492925 -634.45038147 930.87923058 -637.76461792 930.86079407 C-647.18518062 930.80852791 -656.60566265 930.76039449 -666.02636719 930.74487305 C-671.79881467 930.73474158 -677.57089502 930.70528804 -683.34319687 930.66355324 C-685.5318002 930.65131348 -687.72045554 930.64610901 -689.90909195 930.64835167 C-709.92039892 930.66380929 -726.34777228 927.89592799 -741.48535156 913.55126953 C-751.76057168 902.41685865 -756.10668577 889.07626336 -755.92285156 874.14892578 C-755.16887051 858.51373974 -748.18843208 846.11816433 -737.14941406 835.38330078 C-728.26455912 827.74418858 -716.91261957 824.2027716 -705.93457031 820.56689453 C-704.74530441 820.16623779 -703.55603851 819.76558105 -702.33073425 819.3527832 C-699.15523394 818.28427617 -695.97779249 817.2220032 -692.79914856 816.16291428 C-689.49149402 815.05946038 -686.18621354 813.94894491 -682.88085938 812.83862305 C-681.55123975 812.39201135 -680.22161939 811.94540185 -678.89199829 811.49879456 C-678.23575092 811.27834536 -677.57950356 811.05789616 -676.9033699 810.83076668 C-674.92373793 810.16615977 -672.94375638 809.502603 -670.9637146 808.83921814 C-663.2840886 806.26430955 -655.6202824 803.64831009 -647.97363281 800.97705078 C-647.10267471 800.67388443 -646.23171661 800.37071808 -645.33436584 800.05836487 C-640.55256868 798.39426494 -640.55256868 798.39426494 -635.77761841 796.71066284 C-621.76398893 791.73763901 -608.27266936 788.69577888 -593.33691406 788.50830078 C-579.15973268 788.41306455 -579.15973268 788.41306455 -566.77441406 782.07080078 C-561.64926369 776.37618926 -560.47751416 772.364486 -560.50267029 764.76782227 C-560.49758345 763.92253086 -560.49249662 763.07723946 -560.48725563 762.20633316 C-560.47257055 759.36814094 -560.47206074 756.53012211 -560.47143555 753.69189453 C-560.46377455 751.65794029 -560.45522822 749.62398922 -560.44586182 747.59004211 C-560.42755912 743.20248057 -560.41553498 738.81496184 -560.40832329 734.42736816 C-560.39681825 727.46308806 -560.37134327 720.49890136 -560.3440094 713.53466797 C-560.30230113 702.48651707 -560.26993382 691.43836154 -560.24153525 680.39016914 C-560.19078752 660.69626059 -560.12771608 641.00239449 -560.05619484 621.30855083 C-560.03156527 614.4143476 -560.01212583 607.52015484 -559.9966861 600.62592524 C-559.86067055 542.88920733 -559.86067055 542.88920733 -557.58691406 517.75830078 C-557.49512878 516.73450821 -557.49512878 516.73450821 -557.40148926 515.69003296 C-554.76348623 486.7904557 -549.87008197 458.20397103 -542.77441406 430.07080078 C-542.47841309 428.88969727 -542.18241211 427.70859375 -541.87744141 426.49169922 C-521.6340328 346.89606018 -483.57828022 272.03283955 -431.19824219 208.79882812 C-429.91377529 207.23993638 -428.6476247 205.66599639 -427.38378906 204.09033203 C-421.9605743 197.33082154 -416.17102698 190.98583078 -410.25341797 184.66308594 C-408.00347323 182.24081133 -405.80052492 179.7762629 -403.58691406 177.32080078 C-398.87470948 172.17710073 -394.0105998 167.19961117 -389.08691406 162.25830078 C-388.38606689 161.55286133 -387.68521973 160.84742187 -386.96313477 160.12060547 C-382.96645335 156.13567762 -378.86806588 152.33081934 -374.59399414 148.64526367 C-372.16876446 146.54673876 -369.81753134 144.37190757 -367.46191406 142.19580078 C-362.05943887 137.27502776 -356.47203825 132.64379588 -350.77441406 128.07080078 C-349.6424262 127.14690629 -348.51093919 126.22239788 -347.37988281 125.29736328 C-273.54881701 65.19348076 -183.92924751 25.37352701 0 0 Z " fill="#D9F3FF" transform="translate(5270.7744140625,6366.92919921875)"/>
<path d="M0 0 C1.28932227 -0.00352835 1.28932227 -0.00352835 2.60469145 -0.00712797 C5.51070441 -0.01383227 8.41667281 -0.01335932 11.32269287 -0.01294994 C13.4169665 -0.01624769 15.51123949 -0.01997306 17.60551167 -0.02409142 C23.38089889 -0.03412989 29.15627572 -0.03783119 34.93167043 -0.04048073 C41.1527496 -0.04437837 47.3738205 -0.05395713 53.59489441 -0.0626936 C67.91893811 -0.08153902 82.24297994 -0.09171687 96.56703277 -0.10015428 C103.64514977 -0.10435988 110.72326593 -0.10958203 117.80138222 -0.11483881 C142.02921237 -0.13273094 166.25704277 -0.14772657 190.48487854 -0.155159 C192.00623367 -0.15563375 193.5275888 -0.15610964 195.04894394 -0.15658666 C195.8034035 -0.15682303 196.55786306 -0.15705941 197.33518504 -0.15730295 C201.15768114 -0.15850415 204.98017724 -0.1597196 208.80267334 -0.16094494 C209.94055522 -0.16130516 209.94055522 -0.16130516 211.10142462 -0.16167267 C235.69193201 -0.16956409 260.28239113 -0.19299168 284.87287745 -0.22550088 C310.8691216 -0.25980578 336.86533753 -0.27951081 362.86160469 -0.28280324 C365.71602505 -0.28322078 368.57044538 -0.28370034 371.42486572 -0.28422642 C372.12770816 -0.28434961 372.8305506 -0.2844728 373.5546913 -0.28459973 C384.86193971 -0.28693108 396.16913206 -0.30258759 407.47636049 -0.32306826 C418.8451918 -0.34333357 430.21393655 -0.34846708 441.58278948 -0.33929763 C447.74105228 -0.33474705 453.89913318 -0.33668344 460.05737114 -0.35605907 C465.69678645 -0.37364912 471.33588661 -0.37272652 476.97530508 -0.35716178 C479.01375946 -0.3547794 481.05223542 -0.3591418 483.09065676 -0.37099043 C499.37227457 -0.45975546 510.47133208 1.38874456 522.64984131 12.97797108 C532.14753521 22.96692501 534.20527456 34.30498169 533.98968506 47.57172108 C533.5152342 59.07184331 527.60734335 68.73184826 519.33734131 76.44672108 C512.51054257 82.54481658 504.60950712 84.96418899 495.89984131 87.19672108 C494.81541748 87.48418201 493.73099365 87.77164295 492.6137085 88.06781483 C486.01145845 89.80496569 479.39224142 91.46555139 472.76185608 93.09184742 C468.94681059 94.02941769 465.1347348 94.97880468 461.32260132 95.92813587 C458.52341992 96.61914318 455.72010553 97.29106122 452.91619873 97.96259022 C437.55226424 101.72857889 424.99747201 106.54463541 413.71234131 118.13422108 C413.07812256 118.73621326 412.44390381 119.33820545 411.79046631 119.95843983 C401.47090166 130.48348253 396.79520557 146.57165827 396.27484131 160.94672108 C396.54314356 171.48050071 399.50935524 181.24811125 403.30218506 190.99750233 C407.31212317 201.49586552 410.84089907 212.15864436 414.42489624 222.80801868 C416.53736436 229.08311054 418.65902603 235.35508649 420.78265381 241.62640858 C420.99546053 242.25501978 421.20826725 242.88363098 421.42752266 243.53129101 C425.22248578 254.73670116 429.10150711 265.91074153 433.02484131 277.07172108 C439.64780693 295.92194766 446.047991 314.84542016 452.43510437 333.77644825 C458.57848166 351.98384065 464.77253899 370.16963057 471.14544678 388.29828358 C477.20323539 405.54254073 483.05428385 422.8554327 488.90036774 440.17223835 C494.56812183 456.95956942 500.27360491 473.73092131 506.14984131 490.44672108 C512.73245761 509.17249335 519.09073509 527.97187281 525.43595505 546.77900028 C531.27808227 564.09377166 537.15019829 581.39489501 543.21234131 598.63422108 C549.5247935 616.58536826 555.62937262 634.60440206 561.71234131 652.63422108 C568.09622108 671.55585798 574.52258481 690.45859997 581.14544678 709.29828358 C586.96558957 725.86605203 592.59557484 742.49674383 598.21234131 759.13422108 C604.40824117 777.48707149 610.63966621 795.82447493 617.07925415 814.09366322 C620.94226028 825.05556055 624.70399116 836.04814047 628.38138199 847.07358646 C629.09059783 849.19868048 629.80133296 851.32326008 630.51260376 853.44766712 C630.9880372 854.86792466 631.46347055 856.28818223 631.93890381 857.70843983 C632.17467196 858.41260092 632.4104401 859.11676201 632.65335274 859.84226131 C634.05106451 864.02055329 635.43778339 868.20229637 636.81654453 872.38687706 C637.47246222 874.37137484 638.13383458 876.35395738 638.79753113 878.33586597 C639.6122659 880.7694943 640.41830666 883.2060587 641.21369934 885.64607716 C645.34130194 898.1161294 645.34130194 898.1161294 653.89984131 907.69672108 C659.82271777 910.44849996 666.88167061 911.06213672 673.08734131 909.00922108 C679.25591764 906.59070437 682.62412397 901.09389404 685.35296631 895.36078358 C685.8545224 894.33170383 685.8545224 894.33170383 686.36621094 893.2818346 C691.384704 882.83768558 695.88709898 872.15219713 700.46234131 861.50922108 C701.48137669 859.1483299 702.50091661 856.78765644 703.52093506 854.42718983 C705.59495336 849.62683708 707.66703482 844.82565576 709.73773193 840.02386951 C713.64125553 830.9767353 717.57190589 821.94145761 721.50518799 812.90723133 C723.54431485 808.22305444 725.58150973 803.53803772 727.61859131 798.85297108 C728.02849304 797.91027363 728.43839478 796.96757618 728.86071777 795.99631214 C734.4710028 783.09162212 740.07008847 770.18206966 745.67053223 757.27310658 C752.97405351 740.43893933 760.28653167 723.60869041 767.60540771 706.78119373 C772.48193595 695.56879385 777.35411339 684.35456347 782.21234131 673.13422108 C787.49166151 660.94134307 792.78800434 648.75591092 798.08734131 636.57172108 C805.47061492 619.59613917 812.84468625 602.61658735 820.21234131 585.63422108 C827.77765962 568.19643175 835.3501945 550.76180811 842.93157959 533.33099842 C850.18702131 516.64899 857.4303159 499.96172792 864.67053223 483.27310658 C871.97405351 466.43893933 879.28653167 449.60869041 886.60540771 432.78119373 C891.48193595 421.56879385 896.35411339 410.35456347 901.21234131 399.13422108 C906.49166151 386.94134307 911.78800434 374.75591092 917.08734131 362.57172108 C924.47061494 345.59613913 931.84464313 328.61656867 939.21234131 311.63422108 C947.24430898 293.12129231 955.28236376 274.61102942 963.33172607 256.10565662 C964.1408914 254.24538728 964.95005481 252.38511709 965.75921631 250.52484608 C966.15922348 249.60524601 966.55923065 248.68564594 966.97135925 247.73817921 C969.59411987 241.70773036 972.21436675 235.6761944 974.83311462 229.64400196 C976.66403035 225.42666475 978.49561874 221.20961983 980.32723999 216.992589 C981.19636677 214.9910445 982.06517133 212.98936005 982.93362427 210.98752308 C984.13896139 208.20922941 985.34521544 205.43133715 986.55218506 202.65375233 C986.92403931 201.79777454 987.29589355 200.94179676 987.67901611 200.05988026 C989.9731431 194.79253135 992.31612546 189.55190601 994.76019287 184.35199451 C1001.19489483 169.36408873 1000.29063313 152.20600334 994.71234131 137.13422108 C988.08822899 121.96539583 976.51845001 109.63306823 961.04730225 103.32269764 C957.18631785 101.94676264 953.30416647 100.88595082 949.33734131 99.86468983 C948.51668686 99.65090183 947.69603241 99.43711384 946.85050964 99.21684742 C940.24499485 97.5058757 933.62219087 95.86666931 926.99749756 94.23187733 C923.95065209 93.47533163 920.9040511 92.71781267 917.85760498 91.95966053 C915.79103233 91.44821367 913.72330141 90.94142585 911.65447998 90.43915272 C877.48466569 82.12685087 877.48466569 82.12685087 867.33734131 66.25922108 C861.40043402 55.37489106 859.98068996 43.957397 862.36859131 31.79047108 C865.47241796 21.40870606 871.70596891 12.26854405 880.71234131 6.13422108 C887.35266122 2.62733059 893.27049627 0.01210458 900.82918549 0 C902.76125422 -0.00668677 902.76125422 -0.00668677 904.73235464 -0.01350862 C906.17014155 -0.01341932 907.60792845 -0.01322946 909.04571533 -0.01294994 C910.56664197 -0.01624847 912.08756773 -0.01997401 913.60849237 -0.02409142 C917.79906121 -0.03412119 921.98961572 -0.0378298 926.18019485 -0.04048073 C930.69573832 -0.04438099 935.21127042 -0.05395963 939.72680664 -0.0626936 C950.63856909 -0.08246767 961.55033248 -0.09252619 972.46210837 -0.10142139 C977.60007014 -0.10580344 982.73803087 -0.11117053 987.87599182 -0.11641026 C1004.95560238 -0.13342478 1022.03521229 -0.14791845 1039.11483002 -0.155159 C1043.54837546 -0.15706891 1047.98192089 -0.15898924 1052.41546631 -0.16094494 C1053.51741185 -0.16142868 1054.6193574 -0.16191242 1055.75469524 -0.16241082 C1073.60118496 -0.17070917 1091.4476076 -0.1960418 1109.29406804 -0.22852562 C1127.61510853 -0.26160139 1145.93611495 -0.2796083 1164.25718546 -0.28280324 C1174.5443376 -0.28496804 1184.83139198 -0.29371215 1195.11851501 -0.31926441 C1203.88077206 -0.3409786 1212.6429076 -0.34901834 1221.4051885 -0.33929763 C1225.87440515 -0.3347548 1230.34337117 -0.33663811 1234.81255341 -0.35605907 C1238.90875487 -0.3737051 1243.00452313 -0.3726815 1247.10072929 -0.35716178 C1248.57795062 -0.35478786 1250.05520206 -0.35909807 1251.53237742 -0.37099043 C1265.57777971 -0.47700834 1276.15672848 2.61282848 1286.71234131 12.13422108 C1295.08189569 21.63731437 1299.11232333 32.77041875 1298.92327881 45.36078358 C1298.20526695 54.8013099 1295.09415562 62.42812707 1289.71234131 70.13422108 C1288.62952881 71.71203358 1288.62952881 71.71203358 1287.52484131 73.32172108 C1278.02670508 82.81985731 1266.37183886 86.94542551 1253.15765381 87.37323475 C1219.27753652 88.5758191 1190.21430106 102.09378173 1165.71234131 125.13422108 C1164.82675537 125.92312733 1164.82675537 125.92312733 1163.92327881 126.72797108 C1147.9033913 141.60900402 1139.30484423 162.31200039 1131.09515381 182.06781483 C1126.93984663 192.05742481 1122.59748768 201.96620682 1118.27484131 211.88422108 C1117.40718708 213.87662666 1116.53959324 215.86905855 1115.67205811 217.861516 C1113.90100333 221.92855195 1112.12934945 225.99532629 1110.35736084 230.06195545 C1106.55025297 238.80033577 1102.7509631 247.54211398 1098.95135498 256.28375721 C1096.88110895 261.04654688 1094.81039157 265.8091316 1092.73968506 270.57172108 C1092.3285849 271.51726856 1091.91748474 272.46281605 1091.493927 273.43701649 C1088.92387722 279.34812472 1086.35341365 285.25905287 1083.78268433 291.16986561 C1072.48356708 317.14598908 1072.48356708 317.14598908 1061.21234131 343.13422108 C1053.27105986 361.47412504 1045.29594535 379.79932482 1037.32513428 398.12640858 C1033.12001548 407.79530787 1028.91625083 417.46479596 1024.71234131 427.13422108 C1023.04178336 430.9766755 1021.37121334 434.81912468 1019.70062256 438.66156483 C1019.08089066 440.08697842 1019.08089066 440.08697842 1018.44863892 441.54118824 C1015.97923069 447.22080304 1013.50944294 452.90025263 1011.03933716 458.57956409 C1001.75462193 479.92719512 992.4778806 501.27825942 983.21234131 522.63422108 C973.54052863 544.92659439 963.85584892 567.21334479 954.16400146 589.49701405 C951.68359967 595.20011864 949.20375233 600.90346421 946.72406006 606.60687733 C946.31095581 607.55703724 945.89785156 608.50719715 945.472229 609.48614979 C944.2189242 612.36883634 942.96563053 615.25152775 941.71234131 618.13422108 C932.52218568 639.27251849 932.52218568 639.27251849 928.03933716 649.57956409 C918.75462193 670.92719512 909.4778806 692.27825942 900.21234131 713.63422108 C890.54052863 735.92659439 880.85584892 758.21334479 871.16400146 780.49701405 C868.68359967 786.20011864 866.20375233 791.90346421 863.72406006 797.60687733 C863.31095581 798.55703724 862.89785156 799.50719715 862.472229 800.48614979 C861.2189242 803.36883634 859.96563053 806.25152775 858.71234131 809.13422108 C849.52218568 830.27251849 849.52218568 830.27251849 845.03933716 840.57956409 C835.75462193 861.92719512 826.4778806 883.27825942 817.21234131 904.63422108 C807.54052863 926.92659439 797.85584892 949.21334479 788.16400146 971.49701405 C785.68359967 977.20011864 783.20375233 982.90346421 780.72406006 988.60687733 C780.31095581 989.55703724 779.89785156 990.50719715 779.472229 991.48614979 C778.2189242 994.36883634 776.96563053 997.25152775 775.71234131 1000.13422108 C766.52690824 1021.26165611 766.52690824 1021.26165611 762.03929138 1031.57967091 C749.89050939 1059.51241465 737.75922023 1087.45271969 725.63568115 1115.39642811 C720.3508875 1127.57724642 715.06465847 1139.7574419 709.77868652 1151.93774891 C708.34380197 1155.24412111 706.90892714 1158.55049754 705.47406006 1161.85687733 C705.00028931 1162.94859241 704.52651855 1164.0403075 704.03839111 1165.16510487 C701.13291298 1171.86035853 698.22777715 1178.55576061 695.32289124 1185.25127125 C683.28176372 1213.00500676 671.23020348 1240.75417084 659.16400146 1268.49701405 C655.430329 1277.08172181 651.69790394 1285.66697193 647.96536255 1294.25217152 C645.88107112 1299.04620933 643.79670237 1303.84021354 641.71234131 1308.63422108 C640.8790076 1310.55088758 640.04567427 1312.46755425 639.21234131 1314.38422108 C630.87900798 1333.55088774 622.54567464 1352.71755441 614.21234131 1371.88422108 C613.79987656 1372.83289051 613.3874118 1373.78155994 612.96244812 1374.75897694 C612.12876024 1376.67645805 611.29507086 1378.59393852 610.46138 1380.51141834 C608.38345911 1385.29061865 606.30556374 1390.06983004 604.22772217 1394.84906483 C600.41315697 1403.62285972 596.5983694 1412.39655768 592.78268433 1421.16986561 C581.48356708 1447.14598908 581.48356708 1447.14598908 570.21234131 1473.13422108 C562.27105986 1491.47412504 554.29594535 1509.79932482 546.32513428 1528.12640858 C543.77802951 1533.98300876 541.23142019 1539.83982427 538.68499756 1545.69672108 C538.27390747 1546.64224842 537.86281738 1547.58777576 537.43927002 1548.56195545 C536.19695148 1551.41937343 534.95464414 1554.27679627 533.71234131 1557.13422108 C529.06961044 1567.81298157 524.42682229 1578.49171696 519.78268433 1589.16986561 C508.48358299 1615.14599598 508.48358299 1615.14599598 497.21234131 1641.13422108 C490.9539363 1655.5869671 484.67865992 1670.03237379 478.39422607 1684.47382069 C477.97040146 1685.44776279 477.54657684 1686.4217049 477.10990906 1687.42516041 C476.25337688 1689.39344319 475.39681965 1691.36171508 474.54023743 1693.32997608 C472.01108986 1699.143233 469.48748535 1704.95885481 466.96896362 1710.77672291 C465.40195171 1714.39557909 463.83231881 1718.01329498 462.26226807 1721.63083363 C461.52705781 1723.32664573 460.79306747 1725.02298731 460.06036377 1726.71988392 C459.05038089 1729.05859962 458.03614594 1731.3954273 457.02093506 1733.73187733 C456.72809128 1734.41303608 456.4352475 1735.09419483 456.13352966 1735.79599476 C454.55381604 1739.41871794 452.76908688 1742.76472838 450.71234131 1746.13422108 C450.15927593 1747.39395481 449.64190029 1748.67024394 449.16937256 1749.96234608 C448.90479248 1750.67068592 448.6402124 1751.37902576 448.36761475 1752.10883045 C448.08949951 1752.85970936 447.81138428 1753.61058826 447.52484131 1754.38422108 C439.67292868 1774.93800302 429.54038918 1793.93810665 415.71234131 1811.13422108 C414.92988037 1812.12035389 414.14741943 1813.1064867 413.34124756 1814.12250233 C400.69919209 1829.73467926 386.23127569 1843.69631898 369.71234131 1855.13422108 C368.99030518 1855.63614979 368.26826904 1856.1380785 367.52435303 1856.65521717 C320.91293501 1888.57958323 262.78188242 1900.93169201 207.21551514 1890.8681078 C167.92432752 1883.27275679 132.72854143 1865.36388347 102.71234131 1839.13422108 C101.86542725 1838.41105701 101.01851318 1837.68789295 100.14593506 1836.94281483 C95.8979186 1833.26982598 92.064027 1829.46571007 88.44281006 1825.17328358 C86.67004333 1823.08438012 84.82067679 1821.08460373 82.96234131 1819.07172108 C59.33209705 1792.46479876 47.01730878 1762.89312944 48.71234131 1727.13422108 C51.16375988 1697.76456866 68.27752028 1673.28362897 88.25384521 1652.6439867 C89.26789152 1651.59429431 90.27489453 1650.53777064 91.27630615 1649.47601795 C124.89670457 1613.85787116 173.00443361 1590.98610839 221.71234131 1586.13422108 C223.19154053 1585.96986561 223.19154053 1585.96986561 224.70062256 1585.80218983 C255.7798738 1582.84038062 287.27659331 1586.8254992 316.71234131 1597.13422108 C317.33947021 1597.34627186 317.96659912 1597.55832264 318.61273193 1597.7767992 C328.08055285 1600.99029465 336.90872441 1605.04550223 345.71136475 1609.79510975 C351.54650599 1612.861222 356.49797217 1614.71936749 363.21624756 1613.78656483 C363.8955835 1613.55066639 364.57491943 1613.31476795 365.27484131 1613.07172108 C365.95675537 1612.85386951 366.63866943 1612.63601795 367.34124756 1612.41156483 C373.92992612 1608.86214491 377.7428974 1604.27945343 380.62640381 1597.47797108 C380.95597076 1596.74050648 381.28553772 1596.00304188 381.62509155 1595.24322987 C382.67368012 1592.88157571 383.69474663 1590.50937488 384.71234131 1588.13422108 C385.38855402 1586.58190018 386.06531117 1585.02981633 386.74261475 1583.47797108 C388.50872706 1579.40940535 390.24794764 1575.32984849 391.9793396 1571.24640369 C393.92528736 1566.6587114 395.8829368 1562.07602206 397.84124756 1557.49359608 C398.24310776 1556.55308399 398.64496796 1555.61257191 399.05900574 1554.64355946 C403.31659294 1544.69547103 407.66363693 1534.78722623 412.02484131 1524.88422108 C413.53408935 1521.45589439 415.04321652 1518.02751454 416.55218506 1514.59906483 C416.91266937 1513.78012241 417.27315369 1512.96118 417.64456177 1512.11742115 C421.33430874 1503.72990465 424.97862427 1495.32304502 428.61566162 1486.91254139 C429.13869873 1485.7030785 429.66173584 1484.49361561 430.20062256 1483.24750233 C430.60503067 1482.31229252 430.60503067 1482.31229252 431.01760864 1481.35818958 C435.09006932 1471.94443713 439.1841159 1462.54004643 443.27484131 1453.13422108 C444.13535906 1451.1554628 444.99587337 1449.17670303 445.85638428 1447.19794178 C447.60403508 1443.17927502 449.3517711 1439.16064534 451.09954834 1435.14203358 C453.64665311 1429.28543339 456.19325901 1423.4286164 458.73968506 1417.57172108 C459.15082047 1416.6261031 459.56195587 1415.68048512 459.98554993 1414.70621204 C462.05484084 1409.94675412 464.12401925 1405.18724731 466.1930542 1400.42767811 C470.01604744 1391.63364392 473.83993929 1382.84000446 477.66737366 1374.04790211 C489.33006717 1347.26742233 489.33006717 1347.26742233 500.89984131 1320.44672108 C501.38710693 1319.31282948 501.87437256 1318.17893787 502.37640381 1317.01068592 C502.81081787 1315.99571033 503.24523193 1314.98073475 503.69281006 1313.93500233 C504.0630127 1313.07044422 504.43321533 1312.20588612 504.81463623 1311.31512928 C508.61076723 1302.09270931 506.25565767 1294.49940445 503.08343506 1285.51703358 C502.70281418 1284.40463306 502.3221933 1283.29223255 501.93003845 1282.14612293 C500.68305835 1278.51249727 499.41662858 1274.88598371 498.14984131 1271.25922108 C497.26936084 1268.71083684 496.39305126 1266.16102373 495.51654053 1263.61127186 C492.93483252 1256.11202303 490.32617287 1248.62233029 487.71234131 1241.13422108 C487.03440601 1239.18957292 486.35650569 1237.24491258 485.6786499 1235.3002367 C483.31118748 1228.5126602 480.94011614 1221.72636692 478.55975342 1214.94330311 C472.75304 1198.3722215 467.14179997 1181.73558608 461.52536774 1165.09936237 C455.83612011 1148.24861528 450.10902637 1131.41380706 444.21234131 1114.63422108 C437.84078449 1096.50334174 431.67194004 1078.30601597 425.52496338 1060.0981493 C419.83586607 1043.24780163 414.10888491 1026.4134045 408.21234131 1009.63422108 C401.84062874 991.50289852 395.67159825 973.30513786 389.52451706 955.09681034 C383.85668784 938.30927954 378.15114846 921.53772212 372.27484131 904.82172108 C365.69238079 886.09639197 359.33428632 867.29744853 352.98917389 848.49078083 C346.84594652 830.28378803 340.65200211 812.09840901 334.27923584 793.97015858 C328.22144723 776.72590143 322.37039877 759.41300945 316.52431488 742.0962038 C310.85656078 725.30887273 305.1510777 708.53752085 299.27484131 691.82172108 C292.69238079 673.09639197 286.33428632 654.29744853 279.98917389 635.49078083 C273.84594652 617.28378803 267.65200211 599.09840901 261.27923584 580.97015858 C255.22144723 563.72590143 249.37039877 546.41300945 243.52431488 529.0962038 C237.85656078 512.30887273 232.1510777 495.53752085 226.27484131 478.82172108 C219.69238079 460.09639197 213.33428632 441.29744853 206.98917389 422.49078083 C200.84594652 404.28378803 194.65200211 386.09840901 188.27923584 367.97015858 C182.22098015 350.72457182 176.36938048 333.4103726 170.52297592 316.09218693 C164.64650008 298.68609587 158.72540789 281.29895021 152.61193848 263.97430897 C148.41942677 252.08381323 144.36407962 240.15090449 140.37528992 228.19082355 C139.54567291 225.70453643 138.71453176 223.21876409 137.88287354 220.73315907 C137.32244606 219.05792803 136.76202126 217.38269609 136.20159912 215.70746326 C135.92245667 214.87317924 135.64331421 214.03889523 135.35571289 213.17932987 C133.96912556 209.0319821 132.58749798 204.88310148 131.21661377 200.73053455 C117.18092688 158.22767963 99.51424283 122.20368621 57.89984131 100.88422108 C41.01154327 92.57338441 23.38355214 88.39071229 4.65228271 87.46356678 C-7.73630656 86.83653255 -19.96860365 83.54154641 -29.28765869 74.82172108 C-38.55379182 64.33882299 -42.1314096 52.9273565 -41.63531494 39.10687733 C-40.51505623 26.30571885 -34.4785175 16.16021049 -24.79937744 7.92718983 C-17.13600612 2.45675835 -9.30007193 -0.01712765 0 0 Z " fill="#D9F3FF" transform="translate(10994.287658691406,7155.865778923035)"/>
<path d="M0 0 C6.07312418 3.31261319 10.01686082 7.05592087 12.38856192 13.64514854 C13.63385823 18.49318644 13.42657475 23.41443899 13.39508677 28.39051944 C13.39924276 29.62404797 13.40339875 30.8575765 13.40768068 32.12848468 C13.4161905 35.55678813 13.41125974 38.98459675 13.40069907 42.41286301 C13.39250009 46.15475338 13.40176748 49.89660775 13.40879434 53.63849488 C13.41875009 60.2233535 13.41752984 66.80813746 13.40909928 73.39299712 C13.39654218 83.25093774 13.40132715 93.10881787 13.40954936 102.96676035 C13.42306577 119.76688242 13.42241725 136.5669774 13.41414833 153.36710167 C13.40583166 170.39720592 13.40407228 187.42729214 13.4103756 204.45739746 C13.41096746 206.06969645 13.41096746 206.06969645 13.41157128 207.71456713 C13.41361662 213.19518573 13.41577532 218.67580428 13.41797911 224.15642281 C13.43326664 262.63063932 13.43578333 301.10484705 13.43070431 339.57906582 C13.42535373 380.12671153 13.42714438 420.67434623 13.43952942 461.22199059 C13.43990076 462.44313732 13.4402721 463.66428406 13.44065469 464.92243524 C13.44482259 478.56693409 13.44922721 492.21143286 13.45372874 505.8559316 C13.46204672 531.09418137 13.46936869 556.33243143 13.47644806 581.57068157 C13.47698148 583.46494764 13.47698148 583.46494764 13.47752567 585.39748171 C13.49440622 645.51893544 13.5022082 705.64038955 13.50792126 765.76184525 C13.50830088 769.75172668 13.50868503 773.7416081 13.5090702 777.73148952 C13.51292773 817.79234715 13.51628165 857.85320482 13.51953125 897.9140625 C13.52288732 939.28638926 13.5263811 980.658716 13.53037758 1022.03104271 C13.53076162 1026.01728176 13.53114113 1030.00352081 13.53152017 1033.98975986 C13.53726122 1094.03574754 13.5457077 1154.08173325 13.56261444 1214.12771893 C13.56296841 1215.3897877 13.56332238 1216.65185647 13.56368708 1217.95216976 C13.57077187 1243.16784808 13.57825109 1268.38352626 13.58656713 1293.59920421 C13.59106145 1307.23585642 13.59538773 1320.87250868 13.59953308 1334.509161 C13.59990559 1335.72916611 13.6002781 1336.94917123 13.6006619 1338.20614619 C13.61292576 1378.72781849 13.6132294 1419.24948166 13.60787611 1459.77115512 C13.60286458 1498.14335957 13.60700623 1536.51555274 13.62241393 1574.88775467 C13.6246045 1580.35860837 13.62668124 1585.82946209 13.6286869 1591.30031586 C13.62928152 1592.90896903 13.62928152 1592.90896903 13.62988814 1594.55012024 C13.63587842 1611.52955681 13.63175201 1628.50897535 13.62337987 1645.48841028 C13.61534744 1662.18557058 13.61794467 1678.88270108 13.63182786 1695.57985785 C13.63964015 1705.36772728 13.63924749 1715.15551297 13.62665844 1724.9433779 C13.61910895 1731.44905902 13.62247838 1737.95467619 13.63461021 1744.4603502 C13.64117701 1748.14491972 13.64322141 1751.829324 13.63174324 1755.51388526 C13.51417006 1796.10845841 22.12466667 1831.84798224 51.46240234 1861.56298828 C73.3959418 1883.08712188 103.48756585 1896.4077984 134.2253418 1897.39160156 C150.58784583 1897.93801279 164.344896 1900.83580648 176.01953125 1913.1015625 C184.2705978 1923.29405647 187.08755765 1935.14792803 186.01953125 1948.1015625 C183.54192673 1960.65376373 177.89013301 1970.77709046 167.58203125 1978.4453125 C159.59805368 1983.60568824 152.60960638 1985.25230225 143.18715572 1985.23578358 C142.28086761 1985.23813581 141.3745795 1985.24048804 140.44082811 1985.24291155 C137.38184043 1985.24960707 134.32289516 1985.24914316 131.26390076 1985.24873352 C129.0573945 1985.2520318 126.85088885 1985.25575729 124.64438397 1985.259875 C118.56341365 1985.2699072 112.48245321 1985.27361376 106.40147579 1985.27626431 C100.52213742 1985.27976358 94.64280662 1985.28791053 88.76347279 1985.29580825 C73.00860901 1985.31665536 57.25374335 1985.32712299 41.49886899 1985.33593785 C34.04579932 1985.34014411 26.59273045 1985.34536614 19.13966146 1985.35062238 C-6.37229915 1985.36851309 -31.88425999 1985.38350904 -57.39622593 1985.39094257 C-58.99797539 1985.39141733 -60.59972485 1985.39189322 -62.20147431 1985.39237024 C-62.9957994 1985.39260661 -63.7901245 1985.39284299 -64.60852006 1985.39308653 C-68.63297497 1985.39428773 -72.65742987 1985.39550318 -76.68188477 1985.39672852 C-77.48055055 1985.39696867 -78.27921634 1985.39720882 -79.10208413 1985.39745624 C-104.99545615 1985.40534878 -130.88878236 1985.42877942 -156.78213437 1985.46128446 C-184.15692879 1985.49558648 -211.53169641 1985.51529407 -238.90651268 1985.51858681 C-241.9120143 1985.51900435 -244.9175159 1985.51948392 -247.9230175 1985.52000999 C-249.03307901 1985.52019478 -249.03307901 1985.52019478 -250.165566 1985.5203833 C-262.07250053 1985.5227149 -273.97938185 1985.5383726 -285.88629742 1985.55885184 C-297.85655308 1985.57911325 -309.82674485 1985.58458566 -321.79701448 1985.57508121 C-328.28134866 1985.57052961 -334.7655101 1985.57247297 -341.24982071 1985.59184265 C-347.18710902 1985.60942522 -353.12409793 1985.60851618 -359.0613892 1985.59294536 C-361.20815733 1985.59056186 -363.35494592 1985.59493115 -365.50168271 1985.60677401 C-386.12181894 1985.71347333 -386.12181894 1985.71347333 -394.98046875 1981.1015625 C-395.87787279 1980.64618538 -396.77527683 1980.19080825 -397.69987494 1979.72163182 C-407.42860005 1974.56745881 -414.13988727 1966.36892349 -417.98046875 1956.1015625 C-421.46817247 1944.40031654 -420.37463626 1932.04352886 -414.98046875 1921.1015625 C-408.36295708 1910.46627588 -398.94051045 1902.82682139 -386.98046875 1899.1015625 C-382.63273102 1898.1869273 -378.42505731 1897.97435389 -374.00292969 1897.86254883 C-336.6239824 1896.82501073 -304.7135958 1882.07250313 -278.98046875 1854.9765625 C-264.36168385 1838.45893699 -254.64757761 1818.61589118 -249.98046875 1797.1015625 C-249.8077007 1796.36728077 -249.63493264 1795.63299904 -249.4569292 1794.87646634 C-247.21849453 1783.83997581 -247.70328692 1772.59446002 -247.72599316 1761.38928032 C-247.72360223 1758.94709485 -247.72033634 1756.50491012 -247.71627656 1754.06272686 C-247.70945148 1748.74368206 -247.70882255 1743.42469026 -247.71366604 1738.10564719 C-247.72088115 1730.14275653 -247.71653656 1722.17990031 -247.70998469 1714.21701056 C-247.69915774 1700.64421426 -247.69782644 1687.07143184 -247.70168304 1673.49863243 C-247.70555972 1659.7453151 -247.7051036 1645.99200812 -247.69937325 1632.23869133 C-247.69901442 1631.36977009 -247.69865559 1630.50084886 -247.69828589 1629.60559667 C-247.69681097 1626.06655955 -247.69530657 1622.52752245 -247.69376443 1618.98848535 C-247.67812898 1583.06446237 -247.67545054 1547.14044648 -247.67792049 1511.2164207 C-247.67825894 1506.25254332 -247.67858104 1501.28866595 -247.67888618 1496.32478857 C-247.67897774 1494.84586281 -247.67897774 1494.84586281 -247.67907116 1493.33705977 C-247.68034305 1471.48703963 -247.67774167 1449.63702046 -247.67436011 1427.78700061 C-247.67358937 1422.79784902 -247.67284464 1417.80869743 -247.67209509 1412.81954584 C-247.6717934 1410.81719244 -247.67149152 1408.81483903 -247.67118945 1406.81248562 C-247.67103977 1405.81995405 -247.67089009 1404.82742247 -247.67073588 1403.80481418 C-247.67043235 1401.79719827 -247.67012766 1399.78958236 -247.66982183 1397.78196646 C-247.66114818 1340.81314984 -247.65650532 1283.84433409 -247.66076946 1226.87551689 C-247.66084752 1225.82054673 -247.66092558 1224.76557656 -247.661006 1223.67863761 C-247.6618788 1211.91458684 -247.66280806 1200.15053608 -247.66375663 1188.38648532 C-247.66384214 1187.32436416 -247.66392765 1186.26224299 -247.66401575 1185.16793633 C-247.66453454 1178.72498117 -247.66453454 1178.72498117 -247.66505798 1172.28202601 C-247.67059352 1104.34816824 -247.66305256 1036.41432406 -247.64428711 968.48046875 C-247.63956489 951.36406901 -247.63488437 934.24766927 -247.63045025 917.13126945 C-247.63017693 916.07734201 -247.6299036 915.02341456 -247.629622 913.93754991 C-247.6212505 881.4540439 -247.61657102 848.97053902 -247.61574268 816.48703194 C-247.61571632 815.46716368 -247.61568995 814.44729542 -247.61566279 813.39652207 C-247.615122 791.00783279 -247.61549447 768.6191436 -247.6167025 746.23045434 C-247.61712812 738.21935526 -247.61749325 730.20825617 -247.61783194 722.19715707 C-247.61791724 720.2042043 -247.61800618 718.21125153 -247.61809876 716.21829875 C-247.61954738 684.46554331 -247.61242224 652.7127971 -247.6010948 620.96004387 C-247.58944426 588.08873606 -247.5888816 555.21744474 -247.60093822 522.34613685 C-247.60219004 518.81503793 -247.60339353 515.28393899 -247.60455894 511.75284004 C-247.60484924 510.88625367 -247.60513953 510.01966729 -247.60543862 509.12682073 C-247.60976132 495.41402172 -247.60403789 481.70124616 -247.59411875 467.98845083 C-247.58457344 454.49933671 -247.5857675 441.01025874 -247.59832498 427.52114671 C-247.60536509 419.61686581 -247.60426858 411.71268892 -247.59097659 403.80841547 C-247.58201897 397.93295013 -247.58878896 392.05756988 -247.60156617 386.18210936 C-247.60428769 383.8253617 -247.60202129 381.46860143 -247.59405902 379.11186565 C-247.54205644 362.58779385 -248.34749884 346.48284821 -253.60546875 330.6640625 C-253.85780273 329.89094727 -254.11013672 329.11783203 -254.37011719 328.32128906 C-266.46443205 292.69986466 -291.42605473 263.0682581 -325.05078125 246.00390625 C-339.8592651 238.7089114 -355.06881783 233.84846351 -371.4375 231.4296875 C-388.12601879 228.94498363 -400.83340131 223.8873814 -412.05859375 210.75390625 C-421.93642068 197.12170201 -424.83446102 182.31320488 -422.515625 165.7890625 C-419.32974919 151.31123635 -410.46076306 138.83316839 -397.99584961 130.78833008 C-394.73104288 128.96203669 -391.41493659 127.60476864 -387.91015625 126.33203125 C-387.2183577 126.07691269 -386.52655914 125.82179413 -385.813797 125.5589447 C-377.73432171 122.60464778 -369.5855587 119.84988 -361.43527222 117.09854126 C-356.5679526 115.45491711 -351.70375195 113.80212531 -346.83984375 112.1484375 C-345.8431517 111.80960037 -344.84645966 111.47076324 -343.81956482 111.12165833 C-334.85782924 108.0697738 -325.9205802 104.95009678 -316.98745728 101.81564331 C-298.2208191 95.23081497 -279.39869142 88.81737094 -260.55674362 82.45163345 C-244.16950085 76.91486925 -227.80068405 71.33321706 -211.48046875 65.6015625 C-193.8820156 59.4209912 -176.22450226 53.42056014 -158.55371094 47.45062256 C-142.16746202 41.91423614 -125.79977227 36.33260036 -109.48046875 30.6015625 C-91.93711022 24.44151867 -74.34147002 18.43977526 -56.73046875 12.4765625 C-56.08834442 12.25908356 -55.44622009 12.04160461 -54.78463745 11.8175354 C-47.15564341 9.2338281 -39.5245552 6.65643274 -31.89138794 4.08508301 C-29.28418487 3.20417993 -26.67951997 2.31630975 -24.07592773 1.42480469 C-22.7251001 0.96548762 -21.37427027 0.50617698 -20.0234375 0.046875 C-18.93313232 -0.32679199 -17.84282715 -0.70045898 -16.71948242 -1.08544922 C-10.82084348 -2.83627083 -5.66585973 -2.39150687 0 0 Z " fill="#D9F3FF" transform="translate(9272.98046875,6387.8984375)"/>
<path d="M0 0 C2.62264696 0.00564547 5.24528743 0.00846261 7.867939 0.0110817 C32.15646542 0.04634201 56.32175275 0.28979904 80.4790535 3.06482315 C82.84092818 3.33327829 85.20410022 3.58678261 87.56785965 3.83807755 C112.16588158 6.47673698 136.47000895 10.37316436 160.70701981 15.31805801 C161.3911293 15.45749832 162.0752388 15.59693863 162.78007889 15.7406044 C231.87353345 29.9103446 299.35578175 54.39793496 360.70701981 89.31805801 C361.41664871 89.71460587 362.12627762 90.11115372 362.85741043 90.51971817 C370.7303173 94.93694483 378.6959079 99.47618628 381.76965141 108.40478706 C382.93267618 112.64448857 382.99155615 116.70873187 382.97444534 121.08273697 C382.97897646 121.94117514 382.98350757 122.7996133 382.98817599 123.68406475 C383.00079165 126.54795776 382.99920143 129.4116599 382.99754715 132.27557755 C383.00353429 134.3343111 383.01034026 136.39304241 383.01790237 138.45177078 C383.03555367 144.0367738 383.04025748 149.6217155 383.04153395 155.20674372 C383.04295694 158.69996939 383.04722942 162.19317955 383.05252838 165.68640137 C383.0710279 177.88459383 383.07919935 190.08274261 383.07762527 202.28094864 C383.07642488 213.63200357 383.09750759 224.98286806 383.1291126 236.33387482 C383.15531417 246.09380773 383.16599089 255.8536786 383.16471446 265.61364639 C383.16420584 271.43622718 383.16983338 277.25863878 383.19107056 283.08118439 C383.21051748 288.56256447 383.21053326 294.04361515 383.19603729 299.52500725 C383.19395589 301.52880398 383.19860988 303.53262168 383.21075821 305.53638268 C383.30109665 321.47867486 382.22154694 334.39470355 370.70701981 346.40399551 C360.02180712 356.66943199 348.53648838 358.83971251 334.29295731 358.58758926 C322.44746825 358.09422975 312.62930597 352.61928388 304.57030106 344.04462051 C298.06344171 336.05086878 296.13031466 328.18022002 294.14451981 318.25555801 C289.3673253 295.73891399 281.91938218 273.96016548 271.70701981 253.31805801 C271.37444168 252.62599258 271.04186356 251.93392715 270.69920731 251.22089005 C259.87258399 228.79507433 244.89911133 208.00309975 227.98436356 189.77899551 C225.94799827 187.57846356 223.97440127 185.34077099 222.01951981 183.06805801 C216.38538435 176.60459888 210.2144312 170.88648051 203.70701981 165.31805801 C202.79436356 164.51626114 201.88170731 163.71446426 200.94139481 162.88837051 C164.63776941 131.23245208 120.18795178 109.33884988 73.70701981 97.31805801 C72.81418289 97.08393204 71.92134598 96.84980606 71.0014534 96.60858536 C45.55604151 90.04971839 19.32466158 87.09556894 -6.91798019 87.19305801 C-7.68877914 87.19494125 -8.45957809 87.19682449 -9.25373459 87.1987648 C-65.93820931 87.35902974 -119.01561998 92.42425567 -166.29298019 127.31805801 C-166.92768234 127.7859877 -167.56238449 128.25391739 -168.21632004 128.73602676 C-179.49882428 137.1514961 -190.42085711 146.34164933 -199.29298019 157.31805801 C-200.12313644 158.3222377 -200.95329269 159.32641739 -201.80860519 160.36102676 C-231.85034011 197.21300254 -247.17644736 243.98633862 -242.60548019 291.50555801 C-239.99878205 315.27639542 -232.59532077 337.33504085 -221.29298019 358.31805801 C-220.97216476 358.92488419 -220.65134933 359.53171036 -220.32081223 360.1569252 C-215.4801027 369.26798132 -209.81878977 377.36707164 -203.29298019 385.31805801 C-202.83407394 385.88524551 -202.37516769 386.45243301 -201.90235519 387.03680801 C-176.08443199 418.8127135 -139.81286977 441.52671054 -100.31788254 452.22186661 C-99.37627966 452.4770223 -98.43467678 452.732178 -97.46454048 452.99506569 C-86.80860894 455.80892154 -76.02549658 457.9279547 -65.20861053 460.01829529 C-59.32286936 461.15717121 -53.44200682 462.32065527 -47.56121087 463.48474145 C-46.16682876 463.76073099 -44.77239803 464.03647503 -43.37791991 464.31197906 C-26.35239573 467.67691611 -9.36447916 471.21866441 7.62108231 474.77899551 C9.1708209 475.1036357 10.72056202 475.42826385 12.27030563 475.7528801 C20.9186477 477.56478958 29.56621574 479.38036997 38.21343207 481.19764352 C43.7391318 482.35877839 49.26519356 483.5181768 54.79149246 484.67645645 C55.57062225 484.83976637 56.34975203 485.00307628 57.15249181 485.17133498 C60.2958625 485.8301842 63.43923857 486.48900774 66.5826354 487.14773226 C75.14423499 488.94203223 83.70510068 490.73969749 92.26396561 492.54700089 C95.33121935 493.19444903 98.39850566 493.84174269 101.46580887 494.48895645 C102.22060736 494.6482751 102.97540586 494.80759376 103.75307703 494.97174025 C113.65923716 497.06146118 123.57199648 499.1155728 133.49269676 501.13511848 C138.71488076 502.19858738 143.93436826 503.27502284 149.1532172 504.35472786 C152.62417497 505.07193421 156.09612891 505.7826493 159.57209015 506.47523499 C186.87333279 511.93807657 212.48202298 520.47054784 237.70701981 532.31805801 C238.67945633 532.77406387 239.65189285 533.23006973 240.65379715 533.69989395 C262.68958135 544.14261231 283.29552355 556.56133512 302.70701981 571.31805801 C303.33398758 571.79339981 303.96095535 572.26874161 304.60692215 572.7584877 C308.13926747 575.4513239 311.62547012 578.19474792 315.07420731 580.99383926 C316.63180474 582.25705824 318.20040672 583.50667209 319.76951981 584.75555801 C328.36171671 591.7543318 336.17283442 599.57165256 344.01951981 607.38055801 C344.85936417 608.21250183 344.85936417 608.21250183 345.71617508 609.06125259 C352.85304629 616.14621215 359.46847724 623.4133652 365.70701981 631.31805801 C366.73098097 632.56173616 367.75791863 633.80297531 368.78905106 635.04071426 C376.45108906 644.36388759 383.23143345 654.14014074 389.70701981 664.31805801 C390.10485672 664.9411586 390.50269363 665.56425919 390.91258621 666.20624161 C436.25072693 737.83932479 452.00264294 826.42647215 433.44139481 909.19159317 C423.34902615 952.15797383 405.4378127 992.44948726 379.70701981 1028.31805801 C379.19880692 1029.02736465 378.69059402 1029.7366713 378.16698074 1030.46747208 C363.84201461 1050.3171157 347.31384953 1069.38170902 328.70701981 1085.31805801 C327.78026443 1086.13339005 326.85350906 1086.94872208 325.8986702 1087.78876114 C318.12832361 1094.56952155 310.01059867 1100.38929724 301.33201981 1105.94305801 C300.03585449 1106.78078 298.73995867 1107.6189191 297.44432449 1108.45746231 C288.9714956 1113.92689 280.46828686 1119.31931099 271.70701981 1124.31805801 C270.85382156 1124.81015762 270.00062332 1125.30225723 269.12157059 1125.80926895 C188.10614112 1172.43744728 97.91214802 1200.51259181 -6.16798019 1213.63055801 C-7.4757341 1213.7778334 -8.78348801 1213.9251088 -10.13087082 1214.07684708 C-14.5151171 1214.53772181 -18.90093109 1214.94024454 -23.29298019 1215.31805801 C-24.26347305 1215.40419357 -25.23396591 1215.49032913 -26.23386765 1215.57907486 C-47.15792953 1217.38736657 -67.9924013 1217.68125817 -88.98106003 1217.63611603 C-91.64427882 1217.63047585 -94.30749125 1217.62765532 -96.97071457 1217.62503433 C-121.4215352 1217.59004576 -145.75415298 1217.37647045 -170.072155 1214.57129288 C-172.43014536 1214.30241743 -174.78946904 1214.04904684 -177.14942551 1213.79803848 C-201.74899847 1211.15906849 -226.05439616 1207.26327263 -250.29298019 1202.31805801 C-250.97708969 1202.17861771 -251.66119919 1202.0391774 -252.36603928 1201.89551163 C-297.87058659 1192.56340314 -342.66845358 1178.81995356 -385.29298019 1160.31805801 C-386.15971359 1159.94406876 -387.02644699 1159.5700795 -387.91944504 1159.18475723 C-398.48930183 1154.59783825 -408.8940817 1149.65294703 -419.29298019 1144.69305801 C-420.40286301 1144.16663712 -421.51274582 1143.64021622 -422.65626144 1143.09784317 C-448.20024299 1130.81149396 -448.20024299 1130.81149396 -452.64094174 1118.71162546 C-453.85815437 1114.24336058 -453.70772061 1109.7581156 -453.68066025 1105.15529251 C-453.68873855 1103.49883391 -453.68873855 1103.49883391 -453.69698006 1101.8089115 C-453.71125535 1098.11889358 -453.70415665 1094.42923461 -453.69703293 1090.73920059 C-453.70273683 1088.08918503 -453.70960092 1085.43919498 -453.71783066 1082.78918839 C-453.73500035 1076.34357052 -453.73586221 1069.89805023 -453.73061775 1063.45241544 C-453.72657014 1058.20957259 -453.72802664 1052.96675849 -453.73336601 1047.72391701 C-453.73411443 1046.97663143 -453.73486286 1046.22934585 -453.73563396 1045.45941525 C-453.73716551 1043.94107503 -453.73870386 1042.4227348 -453.74024893 1040.90439459 C-453.75396824 1026.67393623 -453.74854108 1012.44353288 -453.73706371 998.21307578 C-453.72713971 985.21489393 -453.74005857 972.21685459 -453.7639979 959.21869472 C-453.78842616 945.85370722 -453.79798716 932.48878598 -453.79134518 919.12377661 C-453.78786022 911.62784952 -453.79003663 904.13203189 -453.80759621 896.63612175 C-453.82236521 890.25250349 -453.82289306 883.86907171 -453.8055253 877.48545692 C-453.79704976 874.23310305 -453.79697367 870.98114774 -453.81017685 867.72879982 C-453.93276188 835.02455303 -453.93276188 835.02455303 -441.77344894 821.64618301 C-432.08075441 812.49590204 -419.44045592 808.79041241 -406.40626144 809.07196426 C-393.21669092 810.11455265 -383.76545268 815.51543924 -374.39844894 824.58368301 C-368.61205216 832.09848403 -366.15952597 840.54521619 -363.91798019 849.63055801 C-352.35315872 894.15008704 -332.09284528 935.37976483 -303.29298019 971.31805801 C-302.09221848 972.8378627 -302.09221848 972.8378627 -300.86719894 974.38837051 C-296.10193672 980.3301362 -291.0413352 985.95335384 -285.85938644 991.52899551 C-283.71799805 993.85616647 -281.6495539 996.21864416 -279.60548019 998.63055801 C-276.73225983 1001.94950468 -273.5960903 1004.77677641 -270.25001144 1007.61102676 C-268.39317095 1009.23066608 -266.68900528 1010.91929092 -264.98048019 1012.69305801 C-260.42309966 1017.31188638 -255.34856402 1021.26345445 -250.29298019 1025.31805801 C-249.19015768 1026.23320839 -248.0886384 1027.14993109 -246.98829269 1028.06805801 C-236.62980542 1036.63661716 -225.60935785 1044.07639535 -214.29298019 1051.31805801 C-213.28799484 1051.96170303 -213.28799484 1051.96170303 -212.26270676 1052.61835098 C-200.70184172 1059.94760753 -188.49615264 1066.14125281 -176.29298019 1072.31805801 C-175.5588591 1072.6931752 -174.82473801 1073.06829239 -174.06837082 1073.45477676 C-93.86031653 1114.14341072 12.69392351 1124.72811993 98.69530106 1096.82147598 C120.12780306 1089.51204671 140.20595025 1079.52477444 158.08299637 1065.58368301 C159.52643804 1064.458788 160.98670591 1063.35555907 162.44920731 1062.25555801 C200.32331783 1032.78512551 222.5522772 990.57819044 230.29686356 943.75165176 C235.78820048 896.23608999 221.43309659 849.99343447 192.30369949 812.51239395 C165.04259017 778.25420105 126.21855659 754.35212794 83.80003738 743.99750137 C81.9743798 743.54679606 81.9743798 743.54679606 80.11184025 743.08698559 C66.86359779 739.83385401 53.57563474 736.75480957 40.28123856 733.69696426 C37.59634492 733.07766774 34.91163867 732.45756069 32.22693253 731.83745193 C26.55107242 730.52680527 20.87484072 729.2177797 15.19835281 727.90985489 C6.28215609 725.85533583 -2.63296027 723.79615241 -11.54786301 721.73602676 C-13.05739262 721.38720961 -14.56692237 721.03839306 -16.07645226 720.6895771 C-18.34580266 720.1651785 -20.61515132 719.64077234 -22.88449538 719.11634624 C-28.19262044 717.88969617 -33.50082214 716.66337818 -38.80906296 715.43722916 C-63.74999359 709.67604192 -88.69083378 703.91446193 -113.62437916 698.12137699 C-119.06898683 696.85639105 -124.51392621 695.59288931 -129.95988083 694.33371353 C-167.07850747 685.74962446 -203.43194312 677.08239978 -238.29298019 661.31805801 C-239.14037766 660.93955704 -239.98777512 660.56105606 -240.86085129 660.17108536 C-262.61053301 650.40212548 -282.95288487 638.23561536 -302.29298019 624.31805801 C-302.99358566 623.8156459 -303.69419113 623.3132338 -304.41602707 622.79559708 C-325.76354872 607.39130563 -346.20269943 589.37020019 -363.29298019 569.31805801 C-364.10508957 568.3834877 -364.91719894 567.44891739 -365.75391769 566.48602676 C-385.15753639 544.02892102 -401.56278837 519.20380001 -414.30714035 492.38446426 C-414.97257855 490.98964778 -415.64697044 489.59907264 -416.32960129 488.21258926 C-436.78714786 446.56853831 -446.50790098 399.16497497 -446.54298019 352.94305801 C-446.54399231 351.73351959 -446.54399231 351.73351959 -446.54502487 350.49954605 C-446.43691114 268.33816046 -414.31683911 186.63024377 -357.22657394 127.16571426 C-356.10963558 126.06376836 -354.98648452 124.96806217 -353.85548019 123.88055801 C-352.12232421 122.14740203 -350.56091973 120.31617154 -348.98048019 118.44305801 C-345.57956556 114.50435956 -341.84352422 111.08566491 -337.93751144 107.65399551 C-336.20355447 106.12237621 -334.49143812 104.56558994 -332.80469894 102.98212051 C-324.77771414 95.45453841 -316.1243074 88.86710873 -307.29298019 82.31805801 C-306.69082687 81.86930313 -306.08867355 81.42054825 -305.46827316 80.95819473 C-267.33316691 52.66440623 -223.41959816 31.60327332 -177.29298019 20.31805801 C-176.13653 20.0351088 -174.9800798 19.75215958 -173.78858566 19.46063614 C-144.09069429 12.33663281 -113.82103114 7.41447017 -83.48048019 4.00555801 C-82.18142746 3.85836319 -80.88237473 3.71116837 -79.54395676 3.55951309 C-75.13022383 3.09423616 -70.71539551 2.69033331 -66.29298019 2.31805801 C-65.28670578 2.23192245 -64.28043137 2.1457869 -63.24366379 2.05704117 C-42.15412341 0.3077576 -21.15200851 -0.0462604 0 0 Z " fill="#D9F3FF" transform="translate(7628.292980194092,7155.681941986084)"/>
<path d="M0 0 C4.4698805 3.26645113 7.49026269 7.40047557 9.234375 12.6328125 C9.32973476 14.99957868 9.36151878 17.36902726 9.36268419 19.73771346 C9.36440824 20.47066776 9.36613229 21.20362207 9.36790859 21.95878711 C9.3725079 24.43906355 9.36993433 26.91928216 9.36745358 29.39956093 C9.36929294 31.19372897 9.37157108 32.98789662 9.37425062 34.7820636 C9.38038731 39.74977119 9.38025482 44.7174625 9.37917768 49.68517305 C9.37910533 55.0757174 9.38481429 60.46625598 9.38982254 65.85679758 C9.39781596 75.31718112 9.40211367 84.77756082 9.40403938 94.23794746 C9.40693272 108.30623886 9.4155486 122.37452259 9.4254525 136.4428106 C9.43013319 143.14113504 9.43455248 149.83945964 9.43883812 156.53778434 C9.43926985 157.21249675 9.43970157 157.88720917 9.44014638 158.58236741 C9.4500195 174.14151914 9.45667465 189.70067205 9.46324731 205.25982546 C9.4734783 229.44093374 9.48651951 253.62203806 9.50355721 277.80314255 C9.50432657 278.89542121 9.50432657 278.89542121 9.50511147 280.00976611 C9.51137861 288.89015844 9.51777845 297.77055066 9.52421707 306.65094287 C9.53403009 320.19772643 9.54355806 333.74451021 9.55306508 347.29129399 C9.55413246 348.81220831 9.55520051 350.33312263 9.55626923 351.85403695 C9.5814622 387.71469845 9.60411355 423.57536141 9.62576057 459.43602521 C9.62719763 461.8160265 9.62863731 464.19602778 9.63007738 466.57602906 C9.65223506 503.22054607 9.67310116 539.86506356 9.69177246 576.50958252 C9.69258426 578.10087778 9.69339613 579.69217303 9.69420807 581.28346829 C9.697855 588.43364433 9.70149332 595.58382037 9.70513065 602.73399642 C9.7067441 605.90542126 9.70835838 609.0768461 9.70997257 612.24827094 C9.71118133 614.62438691 9.7123882 617.00050288 9.71359498 619.37661885 C9.73179434 655.17731221 9.75149263 690.97800347 9.7772913 726.77869225 C9.77783304 727.53145893 9.77837479 728.28422561 9.77893295 729.0598034 C9.79030578 744.84408508 9.80207377 760.62836643 9.81437313 776.41264741 C9.82013039 783.80478545 9.82578527 791.19692357 9.83137703 798.58906174 C9.83192905 799.31685761 9.83248106 800.04465349 9.83304981 800.79450379 C9.8507691 824.22772075 9.86172155 847.66093497 9.86895682 871.09415735 C9.87646402 895.36231877 9.89075461 919.63046631 9.91305523 943.89861883 C9.92568043 957.88786701 9.93272044 971.87709235 9.93180504 985.86634633 C9.93173547 995.21278529 9.93887791 1004.55920085 9.95185509 1013.90563075 C9.95903894 1019.22990359 9.96309921 1024.5541274 9.95833259 1029.8784041 C9.95404931 1034.72942993 9.95904321 1039.58035744 9.97119698 1044.43136913 C9.9739642 1046.16833893 9.97345522 1047.90531814 9.96911825 1049.64228474 C9.93640624 1063.94377787 10.57146972 1078.33608191 14.421875 1092.1953125 C14.63545654 1092.97994873 14.84903809 1093.76458496 15.0690918 1094.57299805 C20.14130216 1112.38956396 29.01966695 1128.73331713 41.234375 1142.6328125 C41.92015625 1143.46296875 42.6059375 1144.293125 43.3125 1145.1484375 C62.41059676 1167.64175147 92.98448673 1182.77916486 122.234375 1185.6328125 C125.60784859 1185.83661307 128.98297724 1185.98656261 132.359375 1186.1328125 C146.25358549 1186.75816045 159.62864675 1189.02154904 170.234375 1198.9453125 C179.49910084 1209.4266185 183.07847475 1220.83748392 182.58203125 1234.65625 C181.75464562 1244.12005412 178.52983854 1251.58679492 172.234375 1258.6328125 C171.51701172 1259.52226563 171.51701172 1259.52226563 170.78515625 1260.4296875 C165.09898805 1266.903612 155.70122963 1271.88650863 147.234375 1273.6328125 C144.28751695 1273.72977297 141.36446034 1273.77220956 138.41761684 1273.76703358 C137.51301711 1273.76938581 136.60841737 1273.77173804 135.67640552 1273.77416155 C132.62316121 1273.780857 129.56995941 1273.78039316 126.51670837 1273.77998352 C124.31432692 1273.7832818 122.11194606 1273.7870073 119.90956599 1273.791125 C113.83999724 1273.80115715 107.77043839 1273.80486375 101.70086253 1273.80751431 C95.83253622 1273.8110136 89.96421748 1273.81916055 84.09589571 1273.82705825 C68.37055021 1273.84790531 52.64520282 1273.85837298 36.91984671 1273.86718785 C29.48072926 1273.87139412 22.04161262 1273.87661615 14.60249585 1273.88187238 C-10.86174449 1273.89976309 -36.32598506 1273.91475904 -61.79023075 1273.92219257 C-63.38898262 1273.92266733 -64.98773449 1273.92314322 -66.58648637 1273.92362024 C-67.37932487 1273.92385661 -68.17216338 1273.92409299 -68.98902729 1273.92433653 C-73.00594984 1273.92553773 -77.02287238 1273.92675318 -81.03979492 1273.92797852 C-81.83696587 1273.92821867 -82.63413681 1273.92845882 -83.45546446 1273.92870624 C-109.30033471 1273.93659877 -135.14515906 1273.96002938 -160.99000928 1273.99253446 C-188.31357513 1274.02683658 -215.63711414 1274.04654408 -242.96070188 1274.04983681 C-245.96058652 1274.05025435 -248.96047114 1274.05073392 -251.96035576 1274.05125999 C-253.06834254 1274.05144478 -253.06834254 1274.05144478 -254.19871289 1274.0516333 C-266.08333148 1274.05396488 -277.96789674 1274.06962253 -289.85249633 1274.09010184 C-301.80034787 1274.11036338 -313.7481354 1274.1158356 -325.69600094 1274.10633121 C-332.16818365 1274.10177965 -338.64019329 1274.10372276 -345.11235237 1274.12309265 C-351.03853833 1274.14067548 -356.96442433 1274.13976597 -362.89061325 1274.12419536 C-365.03334373 1274.1218119 -367.17609471 1274.12618095 -369.31879378 1274.13802401 C-389.83136641 1274.24436841 -389.83136641 1274.24436841 -398.765625 1269.6328125 C-399.82136719 1269.11460937 -400.87710938 1268.59640625 -401.96484375 1268.0625 C-412.01408714 1261.78369487 -419.05820787 1253.26265986 -422.29394531 1241.75366211 C-425.08472954 1229.20524462 -422.65846915 1216.75980567 -416.078125 1205.9453125 C-408.913219 1195.87473933 -398.86721077 1189.18785731 -386.65625 1187.1015625 C-383.09376906 1186.67234793 -379.63684758 1186.48985838 -376.05639648 1186.39404297 C-345.48323534 1185.48446808 -318.25970736 1175.10024377 -294.765625 1155.6328125 C-293.94449219 1154.96507813 -293.12335937 1154.29734375 -292.27734375 1153.609375 C-267.18583166 1132.37476201 -253.81536957 1099.80369437 -250.97647884 1067.69043887 C-250.62533993 1062.59851551 -250.62734432 1057.51794904 -250.63699055 1052.41581726 C-250.63523751 1051.2286441 -250.63348447 1050.04147094 -250.63167831 1048.81832284 C-250.62784349 1045.53993798 -250.62843917 1042.26158944 -250.63095608 1038.98320445 C-250.632597 1035.40998686 -250.62844182 1031.83677506 -250.62504691 1028.26355934 C-250.61990407 1022.00631965 -250.61847377 1015.74908768 -250.61950302 1009.49184608 C-250.62102989 1000.18659816 -250.61686187 990.88135877 -250.6116284 981.5761125 C-250.60196247 963.9875777 -250.59914443 946.39904581 -250.59857134 928.81050867 C-250.59811157 915.22492927 -250.59605208 901.639351 -250.59287071 888.05377197 C-250.59197315 884.14136124 -250.59108333 880.2289505 -250.59019583 876.31653976 C-250.58997479 875.34386153 -250.58975374 874.37118329 -250.58952599 873.36902995 C-250.58337251 846.01233681 -250.57942535 818.65564406 -250.57986927 791.2989502 C-250.57988485 790.2677362 -250.57990043 789.23652221 -250.57991648 788.1740593 C-250.57999958 782.94760174 -250.58009863 777.72114417 -250.58020119 772.4946866 C-250.58022113 771.45672026 -250.58024108 770.41875393 -250.58026163 769.34933406 C-250.58030206 767.25031259 -250.58034386 765.15129111 -250.58038702 763.05226964 C-250.58099961 730.40381984 -250.57349595 697.75538042 -250.55981445 665.10693359 C-250.54444424 628.41367322 -250.53584881 591.72041967 -250.53677768 555.02715588 C-250.5368523 551.1122303 -250.53690101 547.19730473 -250.53693199 543.28237915 C-250.53694365 542.31844951 -250.5369553 541.35451986 -250.53696731 540.36138023 C-250.53699804 524.86820446 -250.53061981 509.37503773 -250.52199973 493.88186464 C-250.51351085 478.30190886 -250.51254295 462.72196626 -250.51910905 447.14200944 C-250.52279657 437.89442083 -250.52099626 428.64687235 -250.51116671 419.39928802 C-250.50514683 413.21124373 -250.50648439 407.02322837 -250.51363721 400.83518539 C-250.51750186 397.31661227 -250.51834359 393.79811653 -250.51017985 390.279549 C-250.45026122 362.41158473 -250.45026122 362.41158473 -255.390625 335.0703125 C-255.64859863 334.1119751 -255.90657227 333.1536377 -256.17236328 332.16625977 C-258.78753184 322.87739706 -262.38591364 314.21805407 -266.765625 305.6328125 C-267.24104736 304.69236084 -267.24104736 304.69236084 -267.72607422 303.73291016 C-272.65261491 294.1582077 -278.86358353 285.85387697 -285.765625 277.6328125 C-286.53003906 276.71371094 -287.29445313 275.79460937 -288.08203125 274.84765625 C-293.41023301 268.68066781 -299.27332286 263.54543684 -305.765625 258.6328125 C-306.72984375 257.90320312 -307.6940625 257.17359375 -308.6875 256.421875 C-329.61491503 241.28402402 -351.98406856 233.09928445 -377.46630859 229.49291992 C-393.61441176 227.08962188 -407.14948856 220.47802826 -417.05078125 207.1953125 C-425.65379215 194.33978824 -428.41387686 180.55516765 -426.296875 165.2421875 C-423.42210995 150.79991549 -415.20177792 138.42451811 -403.01757812 130.02981567 C-394.8991393 124.99352754 -385.6528493 122.0689561 -376.640625 119.078125 C-374.73603386 118.43760724 -372.83144406 117.79708546 -370.92691231 117.15639114 C-368.9202166 116.48245838 -366.91261626 115.81128932 -364.90472412 115.14093018 C-358.56387478 113.02355281 -352.22910951 110.88808288 -345.89403915 108.75349045 C-344.4790006 108.2767658 -343.06389272 107.8002469 -341.64871597 107.32393265 C-329.94938312 103.38598585 -318.28396417 99.3583259 -306.640625 95.2578125 C-288.06881445 88.72470618 -269.42062795 82.42316803 -250.765625 76.1328125 C-231.21917482 69.54184171 -211.68864933 62.91655029 -192.22802734 56.07519531 C-176.28177115 50.47220228 -160.27829346 45.04246143 -144.265625 39.6328125 C-127.96478239 34.12566854 -111.67391705 28.59551937 -95.4375 22.90066528 C-90.34652006 21.11593081 -85.25235999 19.34028501 -80.1585083 17.56376648 C-75.09162663 15.79605167 -70.02684221 14.02252829 -64.96386719 12.24365234 C-58.92625326 10.1241808 -52.88225792 8.02373807 -46.83441162 5.93365479 C-44.48125156 5.11712583 -42.13015411 4.29462476 -39.78131104 3.46575928 C-36.50013363 2.3088594 -33.21215201 1.17368476 -29.921875 0.04296875 C-28.95599457 -0.30308914 -27.99011414 -0.64914703 -26.9949646 -1.00569153 C-17.56114637 -4.19960626 -8.87452609 -4.94599384 0 0 Z " fill="#D9F3FF" transform="translate(3551.765625,7099.3671875)"/>
<path d="M0 0 C1.55362349 -0.00668677 1.55362349 -0.00668677 3.13863331 -0.01350862 C4.27509027 -0.01332426 5.41154723 -0.01313989 6.58244228 -0.01294994 C7.79091381 -0.01662663 8.99938534 -0.02030332 10.24447721 -0.02409142 C13.60048418 -0.03321098 16.95644226 -0.03782636 20.31245697 -0.04048073 C23.93158881 -0.04438725 27.55070654 -0.05396541 31.16982937 -0.0626936 C39.91133568 -0.08244908 48.65284313 -0.09252345 57.39436617 -0.10142139 C61.51271732 -0.10580613 65.63106718 -0.11117249 69.7494173 -0.11641026 C83.44318945 -0.13342227 97.1369608 -0.14791562 110.83074188 -0.155159 C114.38375315 -0.15706884 117.93676441 -0.15898918 121.48977566 -0.16094494 C122.37284082 -0.16142868 123.25590599 -0.16191242 124.16573071 -0.16241082 C138.46527507 -0.17070805 152.76473569 -0.19603989 167.0642435 -0.22852562 C181.7511961 -0.26161899 196.43810619 -0.27960985 211.12509626 -0.28280324 C219.36885612 -0.28496632 227.61249391 -0.29368525 235.85621738 -0.31926441 C242.87823278 -0.34100264 249.90009645 -0.34900656 256.92214168 -0.33929763 C260.50229696 -0.3347618 264.08213938 -0.33659676 267.66225147 -0.35605907 C271.55130439 -0.37701739 275.43992962 -0.36667675 279.32902431 -0.35352612 C280.44986622 -0.36449536 281.57070813 -0.37546461 282.72551495 -0.38676625 C295.61568031 -0.28182433 304.62074241 4.20701809 313.83767605 12.97797108 C323.10477686 22.72440469 325.42364798 33.9257609 325.17361355 46.98968983 C324.62249672 58.8932677 318.64806076 68.86676512 310.15017605 76.94672108 C299.74259457 85.38422499 288.05775167 86.48120088 275.1618948 87.51703358 C257.25163171 89.01117063 241.01050438 93.08117502 224.90017605 101.13422108 C223.73099636 101.71816639 222.56181667 102.3021117 221.3572073 102.90375233 C204.84625928 111.76556059 191.58464742 125.0043814 178.46958828 138.17039967 C176.88016912 139.75491798 175.29010365 141.3387882 173.69945639 142.92207366 C169.37174557 147.23351529 165.05329574 151.55412588 160.73645627 155.87644875 C156.54490409 160.07041044 152.34631172 164.25730993 148.14801468 168.4445172 C138.51597266 178.05176518 128.89402119 187.66907577 119.27531991 197.28967794 C111.84959532 204.71677932 104.42126744 212.14126782 96.99112415 219.56394863 C95.92107036 220.63295207 94.85101794 221.70195688 93.78096687 222.77096305 C92.98415251 223.5669984 92.98415251 223.5669984 92.17124088 224.37911527 C91.37292918 225.17664676 91.37292918 225.17664676 90.55848998 225.99028999 C90.02535278 226.5229032 89.49221558 227.0555164 88.9429227 227.60426941 C73.96908798 242.56354135 58.99838058 257.5259371 44.03413773 272.49480438 C43.47108459 273.05802947 42.90803146 273.62125456 42.32791611 274.20154707 C39.47454884 277.05580315 36.62120959 279.91008722 33.76788012 282.76438107 C33.20125765 283.33119457 32.63463518 283.89800807 32.05084234 284.48199774 C30.90500078 285.6282264 29.75916083 286.77445667 28.6133225 287.92068856 C10.7633649 305.77662303 -7.09729083 323.62179467 -24.96627903 341.45868397 C-45.06731395 361.52364054 -65.15995517 381.59694979 -85.24048501 401.68242866 C-87.38121214 403.82362574 -89.52196911 405.96479297 -91.66274548 408.10594082 C-92.18981099 408.63310872 -92.7168765 409.16027662 -93.2599137 409.7034193 C-101.21117221 417.65587188 -109.16898328 425.60172746 -117.13017941 433.54423046 C-126.17898911 442.57180287 -135.21905763 451.60802326 -144.24755826 460.6559089 C-148.8534144 465.27117886 -153.4634758 469.88209535 -158.08434582 474.48234081 C-162.31436903 478.6936918 -166.5326746 482.91642211 -170.74195854 487.14849935 C-172.26613273 488.67686835 -173.7945364 490.20103364 -175.32757058 491.72051545 C-188.07280248 503.67650038 -188.07280248 503.67650038 -193.66232395 519.69672108 C-192.95373629 529.36388129 -187.22670591 535.69764064 -181.0881052 542.68890858 C-178.17322924 546.01399839 -175.43363782 549.45293026 -172.72482395 552.94672108 C-168.74516709 558.06137808 -164.69872242 563.114608 -160.59982395 568.13422108 C-156.09204746 573.65747113 -151.65139456 579.22606924 -147.26388645 584.84515858 C-143.76206148 589.31858816 -140.19171231 593.73289309 -136.59982395 598.13422108 C-132.09222423 603.65761792 -127.65139754 609.22606544 -123.26388645 614.84515858 C-119.76206148 619.31858816 -116.19171231 623.73289309 -112.59982395 628.13422108 C-108.09222423 633.65761792 -103.65139754 639.22606544 -99.26388645 644.84515858 C-95.76206148 649.31858816 -92.19171231 653.73289309 -88.59982395 658.13422108 C-84.09222423 663.65761792 -79.65139754 669.22606544 -75.26388645 674.84515858 C-71.76206148 679.31858816 -68.19171231 683.73289309 -64.59982395 688.13422108 C-60.09222423 693.65761792 -55.65139754 699.22606544 -51.26388645 704.84515858 C-47.76206148 709.31858816 -44.19171231 713.73289309 -40.59982395 718.13422108 C-36.09222423 723.65761792 -31.65139754 729.22606544 -27.26388645 734.84515858 C-23.76206148 739.31858816 -20.19171231 743.73289309 -16.59982395 748.13422108 C-12.09222423 753.65761792 -7.65139754 759.22606544 -3.26388645 764.84515858 C0.23793852 769.31858816 3.80828769 773.73289309 7.40017605 778.13422108 C11.90777577 783.65761792 16.34860246 789.22606544 20.73611355 794.84515858 C24.23793852 799.31858816 27.80828769 803.73289309 31.40017605 808.13422108 C35.90777577 813.65761792 40.34860246 819.22606544 44.73611355 824.84515858 C48.23793852 829.31858816 51.80828769 833.73289309 55.40017605 838.13422108 C59.90777577 843.65761792 64.34860246 849.22606544 68.73611355 854.84515858 C72.23793852 859.31858816 75.80828769 863.73289309 79.40017605 868.13422108 C83.90777577 873.65761792 88.34860246 879.22606544 92.73611355 884.84515858 C96.23793852 889.31858816 99.80828769 893.73289309 103.40017605 898.13422108 C107.90777577 903.65761792 112.34860246 909.22606544 116.73611355 914.84515858 C120.23793852 919.31858816 123.80828769 923.73289309 127.40017605 928.13422108 C131.90777577 933.65761792 136.34860246 939.22606544 140.73611355 944.84515858 C144.23793852 949.31858816 147.80828769 953.73289309 151.40017605 958.13422108 C155.90777577 963.65761792 160.34860246 969.22606544 164.73611355 974.84515858 C168.23793852 979.31858816 171.80828769 983.73289309 175.40017605 988.13422108 C179.90777577 993.65761792 184.34860246 999.22606544 188.73611355 1004.84515858 C192.23793852 1009.31858816 195.80828769 1013.73289309 199.40017605 1018.13422108 C203.90777577 1023.65761792 208.34860246 1029.22606544 212.73611355 1034.84515858 C216.23794268 1039.31859348 219.80851806 1043.73270011 223.40017605 1048.13422108 C230.96289661 1057.41026594 238.42226356 1066.74982075 245.52517605 1076.38422108 C249.67244415 1081.94600384 254.14995523 1087.08268028 258.90017605 1092.13422108 C259.42611355 1092.7246117 259.95205105 1093.31500233 260.49392605 1093.92328358 C273.26677623 1107.67364781 290.90596689 1117.031786 308.46267605 1123.00922108 C309.26398952 1123.28346912 310.065303 1123.55771717 310.8908987 1123.84027576 C327.82240601 1129.27158215 344.18155817 1129.58252336 361.79324245 1129.64545155 C379.79955668 1129.7382531 395.0983727 1130.33550685 409.04861355 1143.11859608 C417.46187988 1152.2773417 421.29547443 1164.08234866 421.11111355 1176.36078358 C420.13511406 1189.19336948 414.68734886 1199.2654342 405.4743948 1208.08734608 C398.08564727 1213.96246551 390.14402448 1217.23466841 380.76960564 1217.29637527 C378.87112599 1217.31231252 378.87112599 1217.31231252 376.93429321 1217.32857174 C375.52696089 1217.33539196 374.11962798 1217.34209148 372.71229458 1217.34868336 C371.21937672 1217.35914182 369.72646157 1217.36999358 368.23354918 1217.38120562 C364.12507254 1217.41066782 360.01658134 1217.43370924 355.90805781 1217.45551336 C352.38550584 1217.4749519 348.86298066 1217.49798461 345.34044992 1217.52090722 C311.94524688 1217.73699907 278.54936472 1217.85033433 245.15361595 1217.94172287 C240.80652141 1217.95383073 236.45942757 1217.96616438 232.11233425 1217.9787035 C231.03188851 1217.98181034 229.95144277 1217.98491719 228.83825625 1217.98811818 C211.33746215 1218.03994653 193.8373642 1218.14414276 176.33695167 1218.26849573 C158.3684688 1218.39511443 140.4003481 1218.46864226 122.43143088 1218.49213034 C112.34272385 1218.50677788 102.25532451 1218.54550613 92.16706562 1218.64500713 C83.57469748 1218.72974696 74.983785 1218.76715242 66.3910042 1218.74275356 C62.00773075 1218.73180947 57.62762326 1218.74342641 53.24487782 1218.81655598 C25.55047678 1219.25568739 25.55047678 1219.25568739 19.46261692 1214.06345272 C16.47100964 1210.73406378 14.72117999 1207.19944312 12.90017605 1203.13422108 C11.10573481 1200.67750253 11.10573481 1200.67750253 9.36892605 1198.75922108 C8.87457058 1198.15465076 8.38021511 1197.55008045 7.87087917 1196.92718983 C7.38554714 1196.33551014 6.90021511 1195.74383045 6.40017605 1195.13422108 C1.89121484 1189.61194992 -2.548272 1184.04234902 -6.93576145 1178.42328358 C-10.43758642 1173.94985399 -14.0079356 1169.53554906 -17.59982395 1165.13422108 C-22.10742368 1159.61082423 -26.54825037 1154.04237672 -30.93576145 1148.42328358 C-34.43758642 1143.94985399 -38.0079356 1139.53554906 -41.59982395 1135.13422108 C-46.10742368 1129.61082423 -50.54825037 1124.04237672 -54.93576145 1118.42328358 C-58.43758642 1113.94985399 -62.0079356 1109.53554906 -65.59982395 1105.13422108 C-70.10742368 1099.61082423 -74.54825037 1094.04237672 -78.93576145 1088.42328358 C-82.43758642 1083.94985399 -86.0079356 1079.53554906 -89.59982395 1075.13422108 C-94.10742368 1069.61082423 -98.54825037 1064.04237672 -102.93576145 1058.42328358 C-106.43758642 1053.94985399 -110.0079356 1049.53554906 -113.59982395 1045.13422108 C-118.10742368 1039.61082423 -122.54825037 1034.04237672 -126.93576145 1028.42328358 C-130.43758642 1023.94985399 -134.0079356 1019.53554906 -137.59982395 1015.13422108 C-142.10742368 1009.61082423 -146.54825037 1004.04237672 -150.93576145 998.42328358 C-154.43758642 993.94985399 -158.0079356 989.53554906 -161.59982395 985.13422108 C-166.10742368 979.61082423 -170.54825037 974.04237672 -174.93576145 968.42328358 C-178.43758642 963.94985399 -182.0079356 959.53554906 -185.59982395 955.13422108 C-190.10742368 949.61082423 -194.54825037 944.04237672 -198.93576145 938.42328358 C-202.43758642 933.94985399 -206.0079356 929.53554906 -209.59982395 925.13422108 C-214.10742368 919.61082423 -218.54825037 914.04237672 -222.93576145 908.42328358 C-226.43758642 903.94985399 -230.0079356 899.53554906 -233.59982395 895.13422108 C-238.10742368 889.61082423 -242.54825037 884.04237672 -246.93576145 878.42328358 C-250.43758642 873.94985399 -254.0079356 869.53554906 -257.59982395 865.13422108 C-262.10742368 859.61082423 -266.54825037 854.04237672 -270.93576145 848.42328358 C-274.43758642 843.94985399 -278.0079356 839.53554906 -281.59982395 835.13422108 C-286.10742368 829.61082423 -290.54825037 824.04237672 -294.93576145 818.42328358 C-298.43758642 813.94985399 -302.0079356 809.53554906 -305.59982395 805.13422108 C-310.10742368 799.61082423 -314.54825037 794.04237672 -318.93576145 788.42328358 C-322.43758642 783.94985399 -326.0079356 779.53554906 -329.59982395 775.13422108 C-334.10742368 769.61082423 -338.54825037 764.04237672 -342.93576145 758.42328358 C-346.43758642 753.94985399 -350.0079356 749.53554906 -353.59982395 745.13422108 C-358.10742368 739.61082423 -362.54825037 734.04237672 -366.93576145 728.42328358 C-370.43758642 723.94985399 -374.0079356 719.53554906 -377.59982395 715.13422108 C-382.10742368 709.61082423 -386.54825037 704.04237672 -390.93576145 698.42328358 C-394.43758642 693.94985399 -398.0079356 689.53554906 -401.59982395 685.13422108 C-406.10742368 679.61082423 -410.54825037 674.04237672 -414.93576145 668.42328358 C-418.43758642 663.94985399 -422.0079356 659.53554906 -425.59982395 655.13422108 C-429.64958085 650.1718429 -433.65781888 645.18264007 -437.59982395 640.13422108 C-442.66927784 633.64308563 -447.85682437 627.2521342 -453.06076145 620.86859608 C-456.77164111 616.31528408 -460.44253448 611.73069364 -464.09982395 607.13422108 C-462.75519213 604.1416791 -461.2684658 602.05318458 -458.95253104 599.73853117 C-458.29997959 599.08148513 -457.64742813 598.42443909 -456.97510239 597.74748257 C-456.25501717 597.03265138 -455.53493195 596.31782018 -454.79302597 595.58132744 C-454.02738299 594.81337676 -453.26174 594.04542609 -452.47289571 593.25420418 C-449.88511262 590.66109298 -447.29020874 588.07522485 -444.69532871 585.4892168 C-442.82820258 583.62121917 -440.96147741 581.75282864 -439.09523708 579.88394684 C-435.02598867 575.81054689 -430.95302982 571.74088658 -426.87764263 567.67362881 C-420.81741283 561.62545414 -414.76291091 555.57157005 -408.70958469 549.51648688 C-398.52618687 539.330459 -388.3381335 529.14909963 -378.1474371 518.97037411 C-368.05143176 508.88619792 -357.95749285 498.79996071 -347.86631298 488.71095562 C-347.23916099 488.08394111 -346.612009 487.4569266 -345.96585241 486.81091165 C-342.78085451 483.62659042 -339.59589355 480.44223223 -336.41094682 477.25785982 C-313.83833621 454.68945247 -291.26109057 432.12568719 -268.68112278 409.564641 C-246.75495456 387.65682522 -224.83087539 365.74692233 -202.9096384 343.83417225 C-202.23450945 343.15930634 -201.55938049 342.48444044 -200.86379307 341.78912405 C-194.08341576 335.01138394 -187.30308119 328.23360109 -180.52277807 321.45578676 C-166.69704624 307.63513151 -152.87103201 293.8147588 -139.04484653 279.99455738 C-138.40875568 279.35874111 -137.77266483 278.72292483 -137.11729849 278.0678414 C-98.61305538 239.58027785 -60.10331023 201.09821973 -21.5923273 162.61740023 C-20.77563056 161.8013377 -19.95893383 160.98527517 -19.11748871 160.14448348 C-17.61945172 158.64761221 -16.12140691 157.15074876 -14.62335226 155.65389517 C-13.34216847 154.37370605 -12.06137382 153.09312728 -10.78107741 151.81205071 C-9.71570899 150.74885189 -8.64746331 149.68852199 -7.57531408 148.63216143 C0.72961976 140.43308836 4.90926686 130.35390851 5.33767605 118.75922108 C5.0021917 106.86350521 0.40609422 96.97771047 -7.75607395 88.39203358 C-10.92656306 85.50569208 -14.32209788 83.38383048 -18.03732395 81.25922108 C-28.51423389 75.06831975 -35.24318407 65.92788995 -38.66915989 54.18231678 C-41.31715858 41.58931166 -39.0170438 29.30127458 -32.41232395 18.44672108 C-24.80263822 7.81218527 -13.36841637 0.02672343 0 0 Z " fill="#D9F3FF" transform="translate(9751.099823951721,7155.865778923035)"/>
<path d="M0 0 C1.99500785 1.81778221 3.95784852 3.66699058 5.90942383 5.53125 C6.88381804 6.46077721 7.86332764 7.38497191 8.84790039 8.30371094 C37.51425909 35.09990851 56.53828012 72.73394836 64.37280273 110.92724609 C64.61836914 112.07555908 64.61836914 112.07555908 64.86889648 113.24707031 C69.85169592 137.50733244 69.59688069 165.74188714 64.37280273 189.92724609 C64.19587891 190.7591748 64.01895508 191.59110352 63.83666992 192.44824219 C57.97026549 219.26247247 47.34034381 244.52555194 31.37280273 266.92724609 C30.95675781 267.51151367 30.54071289 268.09578125 30.11206055 268.69775391 C24.23028064 276.84642123 17.64709573 284.27723396 10.70678711 291.53027344 C9.569216 292.72155855 8.44602049 293.92654374 7.32592773 295.13427734 C-6.41973508 309.55547487 -24.09631531 320.72332624 -41.62719727 329.92724609 C-42.29203125 330.27674316 -42.95686523 330.62624023 -43.6418457 330.98632812 C-58.32156476 338.57596411 -73.97299196 343.58406703 -90.06469727 347.23974609 C-91.03620728 347.46065918 -91.03620728 347.46065918 -92.02734375 347.68603516 C-105.30361238 350.49488773 -118.41931044 351.33743684 -131.93969727 351.30224609 C-133.18218231 351.30093185 -133.18218231 351.30093185 -134.44976807 351.29959106 C-186.49760882 351.1190906 -233.78353381 331.46271448 -271.62719727 295.92724609 C-272.1532959 295.43514648 -272.67939453 294.94304687 -273.22143555 294.43603516 C-311.48598779 258.34824202 -332.00305751 207.53917914 -333.81469727 155.34130859 C-334.8957312 104.48230299 -316.80584443 54.65560438 -282.62719727 16.92724609 C-281.74812306 15.91810812 -280.87052846 14.90767941 -279.99438477 13.89599609 C-246.40384873 -24.41493956 -195.9244894 -46.30351139 -145.65844727 -49.79541016 C-92.46186018 -52.92520936 -39.81295332 -35.61840862 0 0 Z " fill="#D9F3FF" transform="translate(3546.627197265625,6510.07275390625)"/>
<path d="M0 0 C145.40667159 0 145.40667159 0 164.75 4.125 C165.74604248 4.33672852 166.74208496 4.54845703 167.76831055 4.76660156 C220.23661742 16.50787662 264.21457013 49.68934628 293.1484375 94.4375 C301.66096276 107.89810851 307.81186446 121.96030254 313 137 C313.25265625 137.73186523 313.5053125 138.46373047 313.765625 139.21777344 C330.65266364 189.3394423 324.59635371 244.78724411 301.7644043 291.88061523 C295.05748498 305.24761058 286.77754025 317.67334329 277 329 C276.35289063 329.75667969 275.70578125 330.51335937 275.0390625 331.29296875 C272.741064 333.91132021 270.38684575 336.46222136 268 339 C267.20529297 339.84570557 267.20529297 339.84570557 266.39453125 340.70849609 C228.01667256 381.21007336 177.69414596 398.58161588 123 402 C82.41 402 41.82 402 0 402 C0 269.34 0 136.68 0 0 Z " fill="#F9DF74" transform="translate(6175,7534)"/>
</svg>
